<?xml version="1.0" encoding="UTF-8" standalone="no"?>
<svg
   version="1.1"
   width="970"
   height="320"
   id="svg59"
   sodipodi:docname="podlog-logo-light-theme.svg"
   inkscape:version="1.4.3 (0d15f75, 2025-12-25)"
   xmlns:inkscape="http://www.inkscape.org/namespaces/inkscape"
   xmlns:sodipodi="http://sodipodi.sourceforge.net/DTD/sodipodi-0.dtd"
   xmlns="http://www.w3.org/2000/svg"
   xmlns:svg="http://www.w3.org/2000/svg">
  <defs
     id="defs59" />
  <sodipodi:namedview
     id="namedview59"
     pagecolor="#ffffff"
     bordercolor="#000000"
     borderopacity="0.25"
     inkscape:showpageshadow="2"
     inkscape:pageopacity="0.0"
     inkscape:pagecheckerboard="true"
     inkscape:deskcolor="#d1d1d1"
     showgrid="false"
     inkscape:zoom="1.0289183"
     inkscape:cx="480.60183"
     inkscape:cy="225.96547"
     inkscape:window-width="1920"
     inkscape:window-height="1008"
     inkscape:window-x="0"
     inkscape:window-y="0"
     inkscape:window-maximized="1"
     inkscape:current-layer="svg59" />
  <path
     id="path3"
     style="fill:#1a1a1a;fill-opacity:0.98000002;fill-rule:nonzero"
     d="M 860.04687,83.804687 C 856.27403,84.046535 852.72586,84.316924 849,85 c -15.27019,3.268447 -28.82036,13.058854 -37.33985,26.08984 -10.50125,18.40808 -15.76769,41.37683 -10.40625,62.37891 L 802,176 c 4.03433,15.288 9.43894,28.30864 21.875,38.59375 C 839.58973,226.6941 856.51169,229.8671 876,228 c 11.67533,-2.09497 21.33279,-7.24819 28.82031,-16.46093 L 906,210 c 0.39319,9.29117 0.0234,17.0307 -4.21875,25.40625 -5.25228,8.75379 -13.02888,13.14556 -22.69922,15.91016 -19.83861,4.02723 -42.48198,-0.23294 -59.83594,-10.33594 l -1.86328,-1.11328 c -1.25459,-0.74406 -2.50722,-1.49144 -3.75781,-2.24219 -1.14638,-0.72772 -2.29974,-1.44461 -3.46094,-2.14843 C 806.63127,233.82793 805.62918,234.06634 802,235 c 0.0986,3.59191 0.19999,7.18372 0.30664,10.77539 0.044,1.47069 0.0876,2.9414 0.13086,4.41211 0.059,2.15985 0.11859,4.31884 0.18359,6.47852 l 0.0625,2.06445 c 0.1206,4.1866 0.18698,8.21883 1.31641,12.26953 6.00075,6.00076 6.00075,6.00125 24.86718,12.30274 L 831,284 c 1.28872,0.43205 2.58039,0.85543 3.875,1.26953 24.24894,6.96642 54.99602,4.66969 77.125,-7.26953 14.38397,-8.31655 23.73152,-19.4094 28.35742,-35.52539 L 941,240 c 3.48401,-12.97865 3.48391,-12.97819 3.34765,-42.66211 -0.018,-3.70723 -0.0244,-7.41577 -0.0254,-11.12304 -0.001,-6.22022 -0.0115,-12.43998 -0.0332,-18.66016 -0.0291,-8.0312 -0.0463,-16.06251 -0.0508,-24.09375 -0.004,-6.98179 -0.0136,-13.96354 -0.0273,-20.94532 -0.005,-2.22717 -0.009,-4.45446 -0.0117,-6.68164 -0.004,-3.5567 -0.0103,-7.11323 -0.0234,-10.66992 l -0.0156,-3.91211 -0.002,-3.738279 -0.0176,-3.375 C 944.13539,92.42547 944.10278,90.710123 944,89 c -1.11496,-1.114952 -1.11483,-1.114677 -6.42383,-1.138672 l -2.29492,0.0059 c -1.58724,-0.002 -3.17448,-0.0032 -4.76172,-0.0039 -2.5152,0.0064 -5.02973,0.01121 -7.54493,0.0059 -1.63756,-0.0042 -3.27648,-0.0046 -4.91406,-0.0039 l -2.34179,0.002 C 913.13646,87.860287 910.58189,87.899085 908,88 c -1,1 -1,1 -1.31641,3.941406 l -0.24609,3.621093 -0.25391,3.628907 L 906,102 c -1.50355,-1.74179 -3.06798,-3.376032 -4.70704,-4.992188 C 889.69428,86.851556 875.16078,83.291771 860.04687,83.804687 Z m 14.70508,32.539063 c 5.59982,0.13988 11.26445,1.71058 16.62695,4.83203 8.53751,5.9419 13.52432,12.99804 16.23438,23.11328 1.99388,13.97735 0.94314,26.91698 -7.65625,38.44922 -6.68909,7.73051 -14.86007,11.46634 -24.94532,12.45703 -8.31318,0.44298 -15.92395,-2.10768 -22.32421,-7.44531 -8.38914,-8.09749 -13.67549,-16.74908 -14.10938,-28.67188 C 838.48676,146.73001 841.17662,136.74517 849,127 c 7.26678,-7.14936 16.41891,-10.88938 25.75195,-10.65625 z" />
  <path
     id="path4"
     style="fill:#1a1a1a;fill-opacity:0.98000002;fill-rule:nonzero"
     d="M 105.86719,83.482422 C 91.154559,83.164795 76.492638,88.397444 65.437502,99.375 l -3.4375,3.625 -1,-15 c -4.249346,-0.0205 -8.498664,-0.03778 -12.748046,-0.04883 -1.729819,-0.0041 -3.459637,-0.0087 -5.189454,-0.01367 -2.557592,-0.0127 -5.114252,-0.02563 -7.671872,-0.03125 l -2.41797,-0.0039 c -2.66619,-0.01759 -5.3064,0.0091 -7.97266,0.09766 -1.11418,1.114179 -1.11444,1.114103 -1.13867,6.197266 l 0.006,2.27539 c -0.007,2.543799 -0.0142,5.087048 -0.0137,7.630858 5.7e-4,1.87176 -9.8e-4,3.74348 -0.004,5.61524 -0.0101,5.08473 -0.0146,10.16915 -0.0156,15.2539 -5.3e-4,4.32257 -0.002,8.64423 -0.006,12.9668 -0.008,10.13624 -0.0143,20.27391 -0.0137,30.41015 7.3e-4,10.55645 -0.004,21.11154 -0.0195,31.66797 -0.0136,9.11708 -0.0225,18.23448 -0.0234,27.35157 3.8e-4,5.42879 9.5e-4,10.85831 -0.008,16.2871 -0.0101,5.19816 -0.0166,10.39559 -0.0117,15.59376 0.003,1.90997 0.005,3.82048 0.006,5.73046 -0.009,2.67252 -0.0174,5.34506 -0.0117,8.01758 l 0.006,2.40235 c -0.0177,2.56958 0.0527,5.03101 0.24804,7.59961 2.22992,2.22992 2.23005,2.22937 7.51172,2.27734 l 2.26953,-0.0117 c 1.57943,0.004 3.15886,0.006 4.73828,0.008 2.495509,-0.0128 4.990804,-0.0224 7.486332,-0.0117 1.627383,0.008 3.253455,0.0111 4.880859,0.01 l 2.332031,-0.006 c 2.630049,0.0142 5.151849,-0.066 7.78125,-0.26562 2,-2 2.000824,-1.99985 2.279297,-5.01172 l 0.03906,-3.91602 c 0.03198,-2.26756 0.06132,-4.53501 0.07813,-6.80273 0.01161,-1.62279 0.02635,-3.24642 0.04492,-4.86914 0.05305,-4.24689 0.09992,-8.49318 0.136719,-12.74024 0.03801,-4.40333 0.08476,-8.80577 0.134765,-13.20898 0.09792,-8.56409 0.183876,-17.12907 0.261719,-25.69336 l 0.02539,-2.75781 1.636719,1.67187 2.164063,2.18945 c 6.453194,6.55893 14.307831,10.55364 23.136718,13.07618 13.806018,2.8989 28.727448,1.19874 41.171878,-5.75391 l 1.89062,-1.18359 c 5.87433,-3.65743 10.95127,-7.4632 15.34375,-12.83985 l 1.65625,-2.16015 c 4.16287,-5.37117 7.80014,-10.66469 10.08985,-17.09766 l 0.91015,-2.90234 c 5.34458,-16.55209 6.90063,-36.35265 1.96478,-53.20735 L 163,129 c -3.7505,-12.04572 -9.8066,-23.48357 -19.86719,-31.453125 L 141,96 138.61719,94.203125 c -9.83338,-6.868689 -21.30684,-10.47366 -32.75,-10.720703 z m -2.36328,28.568358 c 5.33493,0.0163 10.64644,1.51048 16.08203,4.55469 9.41826,6.156 14.16709,14.89601 16.69531,25.76172 0.26908,3.1517 0.28014,6.276 0.25,9.4375 0.0116,1.2114 0.0116,1.21139 0.0234,2.44726 -0.0359,11.12563 -3.34102,21.30407 -11.08594,29.49024 -7.58269,7.09534 -15.45132,9.12305 -25.664061,9.03125 -7.99901,-0.92228 -15.572397,-5.27699 -20.992188,-11.21485 -8.433718,-12.06975 -10.026911,-25.27812 -8.070311,-39.55468 2.31681,-10.5074 7.395362,-19.66241 16.539062,-25.63672 5.529371,-2.87118 10.887723,-4.33272 16.222658,-4.31641 z" />
  <path
     id="path5"
     style="fill:#1a1a1a;fill-opacity:0.98000002;fill-rule:nonzero"
     d="m 472.68945,23.748047 c -6.25516,0.02683 -7.9097,0.850695 -7.9375,7.259765 l 0.0215,2.103516 c -9.3e-4,2.329905 0.001,4.660367 0.0156,6.990235 0.0108,1.667397 0.0178,3.334524 0.0215,5.001953 0.005,4.363701 0.0174,8.728145 0.0391,13.091797 0.0226,4.524306 0.0364,9.047915 0.0469,13.572265 0.0197,8.799688 0.0494,17.598822 0.0899,26.398438 L 465,101 C 457.51039,93.405846 448.86661,87.720976 438.34961,85.371094 420.16584,82.502359 404.32023,85.323794 389.25,95.875 c -14.59241,11.02629 -21.87743,27.86541 -24.70703,45.6211 -2.98474,22.13639 0.69477,45.83302 14.35937,64.0625 11.57629,13.47333 24.76646,21.03944 42.69141,22.79297 17.21704,0.68723 30.39448,-5.70354 42.97265,-17.03125 L 466,210 l 0.14843,2.55469 0.22657,3.32031 c 0.21093,3.30469 0.21093,3.30469 0.625,6.125 2.22882,2.22883 2.22881,2.22854 7.38476,2.25196 l 2.21289,-0.0215 c 1.53842,-9.4e-4 3.07683,-0.003 4.61524,-0.006 2.43182,-0.019 4.86302,-0.0369 7.29492,-0.0391 1.5863,1.6e-4 3.17347,-0.003 4.75977,-0.008 l 2.26757,-0.01 c 2.49845,-0.004 4.96731,-0.0547 7.46485,-0.16797 1.11415,-1.11415 1.11322,-1.11409 1.13281,-6.30664 l -0.006,-2.32422 c 0.005,-2.59859 0.009,-5.19632 0.006,-7.79492 -0.002,-1.91207 -0.003,-3.82425 -0.002,-5.73633 0.006,-5.19389 0.009,-10.38813 0.006,-15.58203 -0.003,-5.526 -0.003,-11.05212 -0.002,-16.57812 0.003,-9.23903 0.003,-18.47777 -0.002,-27.7168 -0.005,-10.78192 -0.007,-21.56378 -0.002,-32.34571 0.005,-9.31136 0.006,-18.622226 0.004,-27.933589 -0.002,-5.543578 -0.002,-11.087283 0,-16.63086 0.003,-5.309762 0.005,-10.619925 0,-15.929687 -0.002,-1.949239 -0.005,-3.898417 -0.006,-5.847656 0.003,-2.730847 0.006,-5.462514 0.002,-8.19336 l -0.004,-2.449219 C 504.13438,30.078044 504.09998,27.552276 504,25 c -1.11605,-1.11605 -1.11607,-1.115516 -6.55078,-1.164062 l -2.35157,-0.0039 c -1.62825,-0.0068 -3.2565,-0.01266 -4.88476,-0.01758 -2.57886,2.46e-4 -5.15754,-0.0013 -7.73633,-0.01953 -1.67865,-0.01236 -3.35647,-0.02041 -5.03516,-0.02344 l -2.40625,-0.002 z m -37.4668,91.933593 c 5.33494,0.0163 10.64645,1.51243 16.08203,4.55664 9.41827,6.156 14.1671,14.89601 16.69532,25.76172 0.26908,3.1517 0.28013,6.276 0.25,9.4375 l 0.0234,2.44727 c -0.0359,11.12563 -3.34102,21.30406 -11.08593,29.49023 -7.5827,7.09534 -15.45133,9.12305 -25.66407,9.03125 -7.99901,-0.92228 -15.57239,-5.27698 -20.99218,-11.21484 -8.43376,-12.06975 -10.02692,-25.27813 -8.07032,-39.55469 C 404.77774,135.12932 409.85629,125.97431 419,120 c 5.52937,-2.87118 10.88772,-4.33467 16.22265,-4.31836 z" />
  <path
     d="m 298,47 c 2.93453,0.366817 3.86437,0.864372 6,3 0.59852,2.618665 1.08151,5.171001 1.49219,7.820313 0.19165,1.197997 0.19165,1.197997 0.38717,2.420196 1.46674,9.50533 2.38475,19.058529 3.24564,28.634491 0.0856,0.928014 0.1712,1.856028 0.2594,2.812164 C 310.8321,107.45194 311.76248,123.16618 312,139 c 0.66,0 1.32,0 2,0 -0.0348,-1.0841 -0.0696,-2.1682 -0.10547,-3.28516 -0.23295,-11.08179 0.41676,-22.00493 1.48047,-33.02734 0.0948,-1.01418 0.0948,-1.01418 0.19156,-2.04886 C 317.26164,82.738363 317.26164,82.738363 321,79 c 2,0.0625 2,0.0625 4,1 1.93693,3.850569 2.40797,7.442821 2.78125,11.707031 0.11876,1.302437 0.23751,2.604873 0.35986,3.946778 0.0587,0.680524 0.11735,1.361048 0.1778,2.062194 0.30241,3.501057 0.63029,6.999747 0.95453,10.498837 0.0936,1.0217 0.0936,1.0217 0.18918,2.06403 0.47998,5.20847 1.01891,10.40538 1.66238,15.59613 0.14695,1.19367 0.29391,2.38734 0.44531,3.61719 0.16964,2.44027 0.16964,2.44027 1.42969,3.50781 0.0752,-0.88784 0.15034,-1.77568 0.22778,-2.69043 0.28596,-3.3035 0.5836,-6.60551 0.88916,-9.90723 0.12969,-1.42731 0.25474,-2.85506 0.375,-4.2832 0.17402,-2.05665 0.36481,-4.11117 0.55884,-6.16601 0.10997,-1.23589 0.21995,-2.47178 0.33325,-3.74512 C 336.01025,102.9466 336.7792,101.41311 339,99 c 3.875,0.875 3.875,0.875 5,2 0.6682,3.38822 1.05532,6.82618 1.5,10.25 0.13382,1.02166 0.26764,2.04332 0.40552,3.09595 1.27034,10.1996 1.78718,20.38608 2.09448,30.65405 0.66,0 1.32,0 2,0 -0.0619,-1.0725 -0.12375,-2.145 -0.1875,-3.25 0.19293,-3.85866 0.58415,-5.03818 3.1875,-7.75 1.92578,0.58984 1.92578,0.58984 4,2 0.79297,3.00391 0.79297,3.00391 1.1875,6.5625 0.1299,4.04105 0.1299,4.04105 1.8125,7.4375 0.3609,7.45865 0.3609,7.45865 -2,11 -4.75,-0.875 -4.75,-0.875 -7,-2 -0.18563,1.88719 -0.18563,1.88719 -0.375,3.8125 -0.32368,3.29075 -0.69105,4.28657 -2.625,7.1875 -1.875,-0.125 -1.875,-0.125 -4,-1 -2.28259,-4.6793 -2.17523,-8.91825 -2,-14 -0.66,0 -1.32,0 -2,0 0.0619,1.13438 0.12375,2.26875 0.1875,3.4375 0.008,4.9108 -0.72726,9.6133 -1.5625,14.4375 -0.12609,0.74951 -0.25217,1.49902 -0.38208,2.27124 -0.63949,3.52698 -1.2298,5.83408 -3.24292,8.85376 -2.3125,0 -2.3125,0 -5,-1 -4.59285,-9.1857 -5.25736,-19.89624 -6,-30 -1.74009,1.74009 -1.29483,4.18033 -1.42969,6.55469 -0.0715,1.16402 -0.14308,2.32804 -0.21679,3.52734 -0.11312,1.87752 -0.11312,1.87752 -0.22852,3.79297 -0.57597,8.76013 -1.24805,17.45072 -2.625,26.125 -0.11843,0.76296 -0.23687,1.52593 -0.35889,2.31201 -1.15403,6.81615 -1.15403,6.81615 -3.14111,9.68799 -2.625,0.75 -2.625,0.75 -5,1 -2.4668,-2.92246 -3.47778,-5.10487 -4.09766,-8.86719 -0.24109,-1.43509 -0.24109,-1.43509 -0.48706,-2.89917 -0.15767,-1.02585 -0.31533,-2.0517 -0.47778,-3.10864 -0.25487,-1.60162 -0.25487,-1.60162 -0.51489,-3.2356 C 302.72501,170.34533 301.68855,152.72121 301,135 c -0.73543,10.06307 -1.24504,20.1158 -1.60019,30.19875 -0.0857,2.41331 -0.17552,4.82643 -0.26652,7.23954 -0.25823,6.8475 -0.51473,13.69502 -0.7556,20.54316 -0.14871,4.21917 -0.30649,8.43792 -0.47033,12.65653 -0.0604,1.59948 -0.11738,3.19909 -0.17088,4.79881 -0.0747,2.22299 -0.16094,4.44525 -0.24991,6.6677 -0.0458,1.2627 -0.0917,2.5254 -0.1389,3.82636 C 297,224 297,224 295,227 c -2.375,-0.3125 -2.375,-0.3125 -5,-1 -6.49083,-9.73624 -6.25668,-26.42374 -7.73486,-37.80835 -0.39182,-3.01706 -0.79075,-6.03311 -1.19092,-9.04907 -0.25692,-1.94982 -0.51345,-3.89969 -0.76953,-5.84961 -0.11667,-0.88565 -0.23334,-1.7713 -0.35355,-2.68379 C 279.19178,164.74874 278.55711,158.88305 278,153 c -0.0376,1.48041 -0.0376,1.48041 -0.0759,2.99072 -0.0956,3.73137 -0.19541,7.46262 -0.29639,11.19385 -0.0428,1.60186 -0.0845,3.20375 -0.125,4.80566 C 277.36723,177.32817 277.20143,182.66414 277,188 c -0.0246,0.69525 -0.0492,1.3905 -0.0745,2.10681 -0.0747,1.93125 -0.1733,3.86152 -0.27313,5.79163 -0.0529,1.08716 -0.10587,2.17432 -0.1604,3.29443 -0.53703,3.06439 -1.43058,4.52056 -3.49195,6.80713 -1.875,-0.16016 -1.875,-0.16016 -4,-1 -1.125,-2.30859 -1.125,-2.30859 -2,-5.4375 -0.32742,-1.16918 -0.65484,-2.33836 -0.99218,-3.54297 -1.68165,-6.56039 -3.12578,-13.1749 -4.53223,-19.79883 C 260.67348,172.47536 259.83613,168.73786 259,165 c -0.19336,1.05961 -0.38672,2.11922 -0.58594,3.21094 -0.26261,1.3881 -0.52565,2.77611 -0.78906,4.16406 -0.18949,1.04801 -0.18949,1.04801 -0.38281,2.11719 -1.01563,5.28125 -1.01563,5.28125 -3.24219,7.50781 -2.375,0 -2.375,0 -5,-1 -4.2479,-4.89152 -5.96912,-10.92896 -8,-17 -1.07175,3.55786 -1.20401,6.98685 -1.375,10.6875 -0.38027,5.96589 -1.4279,10.77198 -3.625,16.3125 -2.33594,-0.21875 -2.33594,-0.21875 -5,-1 -1.47656,-1.96875 -1.47656,-1.96875 -2.625,-4.5 -0.41379,-0.8959 -0.82758,-1.7918 -1.25391,-2.71484 -1.32844,-3.30028 -2.37178,-6.62408 -3.25,-10.07032 C 223.58363,172.14895 223.29617,171.58305 223,171 c -1.3238,-0.36937 -2.65866,-0.70053 -4,-1 -1.48438,-1.52344 -1.48438,-1.52344 -2.75,-3.375 -0.42797,-0.60586 -0.85594,-1.21172 -1.29688,-1.83594 C 214,163 214,163 214,160 c -0.66,0 -1.32,0 -2,0 -0.0374,0.80824 -0.0748,1.61648 -0.11328,2.44922 -0.0657,1.06863 -0.13149,2.13726 -0.19922,3.23828 -0.087,1.58361 -0.087,1.58361 -0.17578,3.19922 -0.54954,3.34338 -1.59846,5.34854 -3.51172,8.11328 -2.23828,-0.0664 -2.23828,-0.0664 -5,-1 -1.6323,-2.32639 -2.91299,-4.43072 -4.1875,-6.9375 -2.45144,-4.84541 -2.45144,-4.84541 -5.8125,-9.0625 -0.31453,0.85465 -0.62906,1.7093 -0.95313,2.58984 -0.42796,1.10473 -0.85593,2.20946 -1.29687,3.34766 -0.41766,1.10215 -0.83531,2.2043 -1.26563,3.33984 C 188,172 188,172 185.82812,172.87891 184.9232,172.93881 184.9232,172.93881 184,173 c -2.684,-3.88717 -4.96249,-7.72122 -7,-12 -2.31,0 -4.62,0 -7,0 -1.26238,-2.52475 -1.09856,-4.312 -1.0625,-7.125 0.009,-0.91008 0.018,-1.82016 0.0273,-2.75781 0.0116,-0.69867 0.0232,-1.39735 0.0352,-2.11719 4.75,-1.125 4.75,-1.125 7,0 1.65,-3.96 3.3,-7.92 5,-12 1.32,0 2.64,0 4,0 3,5.625 3,5.625 3,9 0.9075,-0.2475 1.815,-0.495 2.75,-0.75 1.0725,-0.0825 2.145,-0.165 3.25,-0.25 2.20312,1.98437 2.20312,1.98437 4,4 0.4473,-1.21559 0.89461,-2.43117 1.35547,-3.68359 0.60963,-1.58504 1.22036,-3.16966 1.83203,-4.75391 0.29197,-0.80244 0.58394,-1.60488 0.88477,-2.43164 0.85329,-2.17453 1.67136,-4.16051 2.92773,-6.13086 2.73828,-1.03516 2.73828,-1.03516 5,-1 0.30293,0.5543 0.60586,1.10859 0.91797,1.67969 2.66317,4.60524 4.07607,6.39494 9.08203,8.32031 1.62386,2.24071 2.75543,4.51085 4,7 2.37446,-6.31079 3.30977,-12.85346 4.41211,-19.47656 0.16178,-0.9075 0.32355,-1.815 0.49023,-2.75 0.20871,-1.23098 0.20871,-1.23098 0.42164,-2.48682 0.76902,-2.6012 1.94098,-4.22398 3.67602,-6.28662 2.3125,0.0625 2.3125,0.0625 5,1 2.6669,4.71837 3.75009,9.78142 5.10547,15 1.54222,5.17218 3.73757,10.06081 5.89453,15 0.24907,-1.10456 0.24907,-1.10456 0.50317,-2.23145 0.7596,-3.34192 1.53428,-6.68017 2.30933,-10.01855 0.26103,-1.15887 0.52207,-2.31773 0.79102,-3.51172 0.39155,-1.67256 0.39155,-1.67256 0.79101,-3.37891 0.23566,-1.02641 0.47131,-2.05283 0.71411,-3.11035 0.92648,-2.85732 1.75692,-4.63511 3.89136,-6.74902 1.32,0 2.64,0 4,0 2.02712,7.23972 3.01702,14.55444 4,22 1.26938,-2.53876 1.15903,-4.38075 1.21094,-7.22266 0.0263,-1.08466 0.0525,-2.16933 0.0796,-3.28686 0.0279,-1.17248 0.0557,-2.34497 0.0845,-3.55298 0.2981,-9.67536 0.89047,-19.25742 2,-28.875 0.11392,-1.0526 0.22784,-2.1052 0.34521,-3.189697 0.12069,-0.977674 0.24138,-1.955347 0.36573,-2.962647 0.15541,-1.281852 0.15541,-1.281852 0.31396,-2.589599 C 271.09053,86.64991 272.22404,85.08398 274,83 c 1.65,0.33 3.3,0.66 5,1 3.14864,8.087494 4.13758,16.25189 5.125,24.8125 0.16977,1.39919 0.34033,2.79828 0.51172,4.19727 0.87428,7.23546 1.61771,14.46597 2.11279,21.73901 0.12287,2.28395 0.12287,2.28395 1.25049,4.25122 0.0309,-0.64384 0.0618,-1.28767 0.0937,-1.95102 0.3307,-6.84939 0.67376,-13.69808 1.02324,-20.54654 0.12802,-2.53826 0.25313,-5.07667 0.375,-7.61523 0.64795,-13.454951 1.46342,-26.851273 2.98853,-40.238773 0.1795,-1.587767 0.1795,-1.587767 0.36262,-3.207611 C 294.67186,50.328137 294.67186,50.328137 298,47 Z"
     fill="#050505"
     id="path6"
     style="fill:#1a1a1a;fill-opacity:0.98000002;fill-rule:nonzero" />
  <path
     d="m 534.72888,23.861053 c 0.80103,0.002 1.60206,0.004 2.42737,0.0061 0.81747,-9.57e-4 1.63493,-0.0019 2.47717,-0.0029 1.73173,-6.82e-4 3.46347,0.0012 5.19519,0.0053 2.66005,0.0053 5.31994,5.5e-5 7.97998,-0.0063 1.67839,6.61e-4 3.35677,0.0019 5.03516,0.0039 0.80103,-0.002 1.60206,-0.004 2.42737,-0.0061 5.61393,0.024 5.61393,0.024 6.72888,1.138946 0.1,2.552277 0.13441,5.077556 0.12698,7.630372 0.002,0.808692 0.003,1.617384 0.005,2.450582 0.004,2.730846 8.2e-4,5.461637 -0.002,8.192484 0.001,1.949239 0.003,3.898479 0.005,5.847717 0.005,5.309763 0.003,10.619506 -3.8e-4,15.929268 -0.003,5.543577 -1.8e-4,11.087153 0.001,16.63073 0.002,9.311364 -5.8e-4,18.622718 -0.005,27.934078 -0.005,10.78193 -0.004,21.56383 0.002,32.34575 0.005,9.23902 0.005,18.47805 0.003,27.71707 -0.002,5.526 -0.002,11.05199 0.001,16.57799 0.003,5.19389 9.1e-4,10.38776 -0.005,15.58166 -0.001,1.91207 -9.3e-4,3.82415 0.001,5.73622 0.003,2.5986 -6.6e-4,5.19711 -0.006,7.79571 0.002,0.76681 0.005,1.53362 0.007,2.32367 -0.0196,5.19255 -0.0196,5.19255 -1.13374,6.3067 -2.72724,0.10099 -5.42863,0.1397 -8.15625,0.13281 -1.2262,0.001 -1.2262,0.001 -2.47717,0.003 -1.73174,6.8e-4 -3.46347,-0.001 -5.19519,-0.005 -2.66006,-0.005 -5.31994,-6e-5 -7.97998,0.006 -1.67839,-6.7e-4 -3.35678,-0.002 -5.03516,-0.004 -0.80103,0.002 -1.60206,0.004 -2.42737,0.006 -5.61393,-0.024 -5.61393,-0.024 -6.72888,-1.13894 -0.1,-2.55228 -0.13441,-5.07756 -0.12698,-7.63037 -0.002,-0.8087 -0.003,-1.61739 -0.005,-2.45059 -0.004,-2.73084 -8.2e-4,-5.46163 0.002,-8.19248 -0.001,-1.94924 -0.003,-3.89848 -0.005,-5.84772 -0.005,-5.30976 -0.003,-10.6195 3.7e-4,-15.92927 0.003,-5.54357 1.9e-4,-11.08715 -0.001,-16.63073 -0.002,-9.31136 5.9e-4,-18.62272 0.005,-27.93408 0.005,-10.78192 0.004,-21.56382 -0.002,-32.34574 -0.005,-9.239029 -0.005,-18.47805 -0.003,-27.717077 0.002,-5.525999 0.002,-11.051988 -0.002,-16.577986 -0.003,-5.193895 -9e-4,-10.387765 0.005,-15.581657 0.001,-1.912074 9.4e-4,-3.824149 -0.001,-5.736222 -0.003,-2.598597 6.7e-4,-5.197115 0.006,-7.795707 -0.002,-0.766813 -0.004,-1.533626 -0.007,-2.323675 0.0242,-6.414573 0.48416,-6.41825 6.86258,-6.445513 z"
     fill="#000000"
     id="path7"
     style="fill:#1a1a1a;fill-opacity:0.98000002;fill-rule:nonzero" />
  <g
     id="g59"
     style="fill:#1a1a1a;fill-opacity:0.98000002">
    <path
       id="path2"
       style="fill:#1a1a1a;fill-opacity:0.98000002;fill-rule:nonzero"
       d="M 691.24805,58.197266 C 685.69624,58.153476 680.79683,59.395685 677.25,62.5625 L 676,64 c -2.22523,-1.722759 -4.16516,-2.88661 -6.98438,-3.269531 C 645.10938,60.264212 623.13379,74.14309 606.26953,89.808594 605.49789,90.553672 604.74895,91.276836 604,92 c -0.73977,0.713203 -1.45777,1.40543 -2.17578,2.097656 -3.04102,3.1629 -5.23442,5.366454 -5.26172,9.902344 0.22094,1.515 0.22094,1.515 0.4375,3 -1.84692,0.30298 -1.84692,0.30298 -4,1 -4.43627,5.70983 -6.49972,11.80761 -8.63867,18.66992 -0.58805,1.95354 -1.17812,3.90566 -1.79102,5.85156 C 580.48462,139.11444 578.48252,145.0074 579,152 l 2,2 c -0.33236,0.57757 -0.65593,1.13864 -0.97852,1.69922 -3.1206,7.02358 -3.11962,7.02309 1.62696,24.33203 0.5538,1.93242 1.10636,3.86411 1.63086,5.80469 1.10455,4.11171 2.17671,8.19497 3.7207,12.16406 1.95405,2.79608 3.0196,4.64597 6.25,5.8125 0.595,0.0637 1.1725,0.1256 1.75,0.1875 -0.2975,0.99875 -0.58625,1.96812 -0.875,2.9375 -0.60419,4.43372 -0.60419,4.43372 3.92578,10.58984 0.66274,0.84071 1.30598,1.65668 1.94922,2.47266 3.5837,4.62555 6.99118,9.3265 11.50391,13.08594 L 614,235 c 2.19706,1.94474 4.40139,3.83328 6.70703,5.64844 2.48453,1.46447 3.54706,1.71061 6.35547,1.28906 0.99875,-0.31875 1.96812,-0.62813 2.9375,-0.9375 0,3 0,3 0.6875,5 2.7191,4.14338 2.7193,4.14411 11.93359,6.78906 1.45777,0.40168 2.91377,0.80653 4.36914,1.2168 0.7855,0.22221 1.54815,0.43862 2.31055,0.6543 2.33981,0.65775 4.66991,1.33103 6.99024,2.05468 3.61312,1.15372 7.22596,2.29752 10.87304,3.33985 C 673.61194,261.64368 679.09251,262.30554 685,259 v -2 h 2 l 2,4 c 4.01527,0.17542 7.98622,0.2358 12,0 4.02963,-1.34321 5.45791,-2.22301 7.875,-5.6875 0.56812,-1.16781 0.56812,-1.16781 1.125,-2.3125 1.5625,2 1.5625,2 4,4 5.13025,0.57643 8.71284,-0.36871 13.25391,-2.55078 0.72117,-0.36524 1.42113,-0.71973 2.12109,-1.07422 1.43492,-0.65735 2.86015,-1.3364 4.27344,-2.03906 3.02667,-1.75444 3.26235,-2.03689 4.32812,-5.60938 0.008,-0.92703 0.0154,-1.82679 0.0234,-2.72656 3.125,0.6875 3.125,0.6875 7,1 11.50525,-4.07477 11.50476,-4.07477 25.78711,-25.52344 0.61226,-0.93504 0.61275,-0.93504 1.21289,-1.85156 1.44388,-2.17998 2.72987,-4.32855 4,-6.625 0.8985,-3.0818 1.29758,-4.2858 0.0625,-7.25 -1.149,-1.55125 -1.149,-1.55125 -1.0625,-2.75 h 5 c 3.01987,-5.14864 5.2512,-10.32495 6.7832,-16.08398 0.26779,-1.06228 0.26682,-1.06228 0.5293,-2.10352 1.2862,-4.99461 1.86883,-9.63442 1.6875,-14.8125 l -3,-1 c 1.48047,-1.55469 1.48047,-1.55469 3,-4 1.22456,-11.1922 -0.57905,-21.40785 -4.44922,-31.86328 -0.31484,-0.83249 -0.62019,-1.64122 -0.92578,-2.44922 -0.85278,-2.27088 -1.73317,-4.51851 -2.67969,-6.75195 -1.7032,-3.48777 -3.47997,-6.4064 -7.19531,-7.74805 -0.595,-0.0637 -1.1725,-0.1256 -1.75,-0.1875 0.0897,-2.33161 0.0777,-4.66796 0,-7 C 767.25238,94.130941 753.39709,84.552569 743.07031,77.910156 742.02641,77.260703 741.0132,76.630352 740,76 730.43807,70.026896 707.90347,58.328634 691.24805,58.197266 Z m -10.01563,14.537109 c 1.20367,-0.06913 2.48625,0.0851 3.70508,0.07813 2.69163,0.03552 5.37315,0.09239 8.0625,0.1875 1.0729,0.03553 1.07339,0.03602 2.16797,0.07227 16.03966,0.700158 27.67305,6.378188 40.30078,16.115234 2.55172,1.827158 5.07043,3.165495 7.90625,4.5 5.3899,2.549507 9.32207,5.659848 11.625,11.312501 -3.625,3 -3.625,3 -7,3 -0.52852,-0.88688 -1.05703,-1.77375 -1.60156,-2.6875 C 743.62208,100.8197 739.26416,99.192288 734.625,97 725.22058,92.514817 725.22058,92.514817 722.08594,88.9375 714.59406,80.931385 702.51901,81.218984 692.3125,80.75 690.91723,80.673414 689.52205,80.595298 688.12695,80.515625 684.75181,80.328766 681.37663,80.157246 678,80 c -0.0425,-1.999548 -0.0408,-4.000416 0,-6 0.90398,-0.903986 2.02875,-1.196492 3.23242,-1.265625 z M 668.90625,73.28125 C 670.18075,73.300888 671.50207,73.521011 673,74 v 8 c -0.75281,0.0026 -1.50563,0.0052 -2.28125,0.0078 -7.88707,0.287151 -14.18433,1.934763 -21.33594,5.083985 -4.87521,2.065128 -4.87521,2.065615 -7.73828,1.177734 C 639.91882,86.937347 638.39793,85.677522 637,84 v -2 c 4.01529,-1.441386 7.99242,-2.420564 12.16406,-3.289062 2.31439,-0.580191 4.53305,-1.240441 6.79688,-1.984376 0.70528,-0.23098 1.41006,-0.461234 2.13672,-0.699218 1.41329,-0.469014 2.82436,-0.94952 4.23046,-1.439453 2.46087,-0.815378 4.45397,-1.33937 6.57813,-1.306641 z M 679,83 c 4.66768,-0.06473 9.33239,-0.05808 14,0 1.29293,0.01547 2.58586,0.03095 3.91797,0.04687 10.63459,0.39026 17.60663,2.504806 25.33203,9.890625 4.62593,4.403292 9.67005,6.235174 15.55078,8.542965 4.43544,2.10671 6.46826,4.50343 9.19922,8.51954 l -7,5 c -3.10942,-1.41846 -5.55118,-3.14679 -8.1875,-5.3125 -3.71266,-2.93971 -7.45016,-5.30188 -11.63672,-7.5 -2.11971,-1.1569 -4.0593,-2.449703 -6.05078,-3.812505 C 704.09319,92.144313 692.43416,92.364786 681,92 c -1.49821,-3.370974 -2,-5.204421 -2,-9 z m -8.92578,1.777344 c 1.27811,0.01114 2.58445,0.0831 3.92578,0.222656 1.76463,3.088097 2,4.233121 2,8 l -3.83984,0.550781 c -1.69929,0.253484 -3.3985,0.507414 -5.09766,0.761719 l -2.51758,0.357422 C 658.78262,95.544356 653.46572,96.979791 648,99 c -3,-5.75 -3,-5.75 -3,-8 8.55994,-3.407749 16.12741,-6.300671 25.07422,-6.222656 z M 632,85 c 2.468,1.151734 4.04784,2.047836 6,4 v 3 c -0.68062,0.37125 -1.36125,0.7425 -2.0625,1.125 -2.93784,1.87522 -3.97482,3.152557 -5.9375,5.9375 -3.09536,4.20914 -6.50027,6.98261 -10.6875,10 -8.49192,6.24098 -10.22692,11.82397 -12.52344,21.85547 -0.77279,3.01849 -1.77478,5.80965 -2.91406,8.70703 -1.94791,5.1077 -2.63892,9.93329 -2.875,15.375 h -8 c 0,-3.19524 0.16831,-5.11618 0.98828,-8.08203 0.21205,-0.76764 0.4241,-1.53528 0.64258,-2.32617 0.33741,-1.19013 0.33741,-1.19013 0.68164,-2.4043 0.21334,-0.78182 0.42668,-1.56363 0.64648,-2.36914 1.01237,-3.6173 2.1087,-6.9739 3.61133,-10.42774 1.51905,-3.60254 2.23131,-6.99983 2.99219,-10.82812 1.87402,-7.9812 5.76171,-11.20219 12.4375,-15.5625 4.50727,-3.653502 8.5269,-7.329283 12,-12 0.9109,-1.108926 1.82775,-2.212993 2.75,-3.3125 z m 7,9 c 3.53571,0.535714 3.53571,0.535714 5,2 0.5,2.6875 0.5,2.6875 0,6 -1.55913,1.67179 -3.25709,2.97633 -5.07031,4.36719 -2.03336,1.72053 -3.40051,3.45889 -4.92969,5.63281 -1.96888,2.79318 -3.81379,4.73151 -6.5625,6.75 -4.86639,3.92104 -6.33132,9.55865 -8.4375,15.25 l -1.75,3.375 c -1.97399,5.72457 -2.00797,11.60755 -2.25,17.625 h -11 c -0.33723,-5.73289 0.7425,-9.8728 2.8125,-15.1875 1.92363,-5.11967 3.57019,-10.06762 4.6875,-15.4375 1.9497,-8.24961 6.95147,-12.19513 13.61719,-16.97266 2.55384,-1.90213 4.69414,-4.09537 6.88281,-6.40234 2.33333,-2.333333 4.66667,-4.666667 7,-7 z m 42,1 c 13.96346,-0.626268 25.31583,1.184234 37,9 1.59589,0.89001 3.19989,1.76565 4.8125,2.625 5.4284,3.0062 9.23759,5.7857 12.1875,11.375 l -6,6 c -3.40237,-1.13412 -3.89306,-1.92215 -6,-4.6875 -7.79373,-9.11443 -20.27881,-13.40097 -31.9375,-14.77734 C 687.70655,104.2882 684.36322,104.10085 681,104 Z m -4,1 c 1,1 1,1 1.09766,2.847656 -0.0326,2.050784 -0.0651,4.101564 -0.0977,6.152344 -0.73863,0.0142 -1.47727,0.0284 -2.23828,0.043 -7.04449,0.33119 -12.30159,1.6854 -18.58203,4.89844 C 655.00004,110.99997 655,111 653,111 c -3,-5.625 -3,-5.625 -3,-9 8.50947,-4.426643 17.38919,-6.389439 27,-6 z m -30,9 c 1.63168,4.12719 2.40296,6.73716 1,11 -1.78516,1.45703 -1.78516,1.45703 -4.0625,2.8125 -8.15175,5.87291 -13.68966,18.69874 -15.5625,28.4375 -0.81278,7.97558 -0.81278,7.97558 0.625,15.75 0.1256,1.72774 0.22709,3.45731 0.3125,5.1875 0.90831,9.90055 5.45183,15.03395 12.25,22.10156 C 644,193 644,193 645.87109,196.09766 c 2.55794,3.48723 5.34768,4.98656 9.19141,6.71484 l 1.89258,0.9043 c 12.70889,6.00858 27.32027,5.78117 41.04492,4.2832 3,5.75 3,5.75 3,8 -5.23555,1.54372 -10.58747,1.18434 -16,1.1875 -1.61068,0.0184 -1.61068,0.0184 -3.25391,0.0371 -10.63191,0.0192 -20.56381,-0.86093 -30.05859,-5.91211 -0.68224,-0.35304 -1.3635,-0.70657 -2.06641,-1.07031 -6.25105,-3.35705 -10.61191,-7.16144 -14.49609,-13.11719 -2.01553,-2.96402 -4.01374,-4.95087 -6.625,-7.375 -7.94425,-7.86585 -8.94665,-15.92418 -9.32422,-26.72266 0.16793,-2.90527 0.16793,-2.90527 -1.17578,-4.02734 -0.46238,-9.40172 0.28302,-18.85137 5.01953,-27.14453 1.01287,-1.91678 1.52824,-3.7092 2.10547,-5.79297 1.74044,-4.85991 5.36794,-7.55683 9.23047,-10.80859 3.22909,-2.75212 6.12906,-5.74892 9.05078,-8.82032 C 645,105 645,105 647,105 Z m 39.29492,1.87109 c 5.54825,-0.18307 10.02797,0.80802 15.20508,2.75391 1.10746,0.40605 1.10649,0.40605 2.23633,0.82031 8.17538,3.11306 15.38975,7.08136 20.26367,14.55469 0.0625,2.1875 0.0625,2.1875 -1,4 -3.03461,2.74094 -3.29585,2.97761 -5.36133,2.99805 0.12658,0.32388 0.2465,0.65745 0.36133,1.00195 l -4,1 c -2.8125,1.5625 -2.8125,1.5625 -6,3 -3,-1 -3,-1 -4.80078,-2.92188 -4.89299,-4.62357 -13.20087,-6.24276 -19.82422,-6.57812 -8.93501,0.49093 -17.58263,4.83969 -24.375,10.5 -4.0278,4.65348 -6.74982,11.01136 -7.13672,17.17969 0.8856,8.64764 4.31603,17.33699 10.13672,23.82031 4.51879,3.10667 9.52652,5.02771 15.01172,5.31641 0.75732,0.0419 1.51465,0.0838 2.29492,0.12695 0.78568,0.0393 1.57137,0.0786 2.38086,0.11914 1.19593,0.0648 1.19593,0.0648 2.41602,0.13086 1.96529,0.10591 3.93087,0.20677 5.89648,0.30664 l 2,9 c -8.14623,2.71541 -19.24945,0.87034 -27.10547,-2.22266 -10.51626,-5.43943 -16.38436,-12.17101 -20.05859,-23.30468 C 640.76432,155.06804 642.5189,147.44628 649,135 c 0.38285,-0.84563 0.7657,-1.69125 1.16016,-2.5625 2.77491,-3.67631 6.41846,-5.47901 10.40234,-7.6875 0.78053,-0.44602 1.56105,-0.89203 2.36523,-1.35156 7.01996,-3.99756 11.42982,-4.63824 19.57227,-4.71094 1.05187,-0.029 2.10375,-0.058 3.1875,-0.0879 1.1295,-0.009 2.23304,0.0137 3.3125,0.0703 V 118 l -18.31445,-0.91602 c -3.31223,0.76122 -6.31475,2.18007 -9.7793,4.62305 C 659.00025,122.99976 659,123 657,123 l -2,-8 c 9.32675,-7.62444 19.82251,-7.48681 31.29492,-8.12891 z M 759,108 c 3.70884,6.7554 5.85809,13.61624 8,21 0.42943,1.42235 0.86049,2.8442 1.29297,4.26562 C 770.57103,140.79971 772.644,148.23383 774,156 h -9 c -0.003,-0.63422 -0.005,-1.26844 -0.008,-1.92188 -0.5437,-13.12116 -4.2497,-27.57537 -11.98828,-38.30078 C 752.67281,115.19082 752.34133,114.6043 752,114 c 1.18363,-3.5509 3.00632,-6 7,-6 z m -11.04297,7.00781 c 5.36626,2.60617 7.92369,11.81946 9.84766,17.27149 0.7566,2.33317 1.45942,4.67472 2.13281,7.0332 0.31699,1.09139 0.31724,1.09164 0.64062,2.20508 1.40319,5.2722 1.59946,10.03124 1.42188,15.48242 l -8,-1 c -1.8897,-6.209 -1.88969,-6.209 -2.29688,-9.12891 -0.9695,-6.82114 -3.68454,-12.31158 -6.87109,-18.33789 C 743.15942,125.36888 741.76427,122.49558 741,119 c 4.36639,-4.00253 4.36639,-4.00253 6.95703,-3.99219 z M 649,118 l 3,1 c 1.1875,3.0625 1.1875,3.0625 2,6 l -2.73047,2.48047 c -3.53043,3.53873 -5.53152,7.31443 -7.58203,11.83203 -0.34611,0.70834 -0.69223,1.41668 -1.04883,2.14648 C 640.29152,146.50559 638.9728,151.39467 639,157 l 1,1 c 0.32679,1.3042 0.61087,2.61918 0.875,3.9375 2.37595,10.86394 4.90635,20.68419 14.4375,27.4375 10.64971,6.42532 22.93212,8.16759 35.19141,7.20703 C 693,197 693,197 694.90234,199.32422 696,202 696,202 695,205 c -3.12356,1.24086 -6.29873,1.13397 -9.625,1.125 -1.44246,0.004 -1.44246,0.004 -2.91406,0.008 C 680,205.99981 680,206 678,205 c -2.08308,-0.053 -4.16651,-0.0923 -6.25,-0.125 -9.04634,-0.61363 -17.3433,-3.4763 -23.90234,-10.02344 -1.13511,-1.46715 -2.22339,-2.97192 -3.25782,-4.51172 -2.30744,-3.39596 -5.10423,-6.29151 -7.89062,-9.29687 -3.66129,-4.40197 -4.18607,-8.57166 -4.76172,-14.16797 -0.37729,-5.09156 -0.37729,-5.09156 -1.9375,-9.875 -0.61724,-6.43447 1.26285,-11.47873 3.5625,-17.4375 0.32291,-0.90299 0.64582,-1.80598 0.97852,-2.73633 C 637.45847,129.15188 641.87696,122.3995 649,118 Z m 87,4 h 2 c 1.47064,2.49343 2.92639,4.99381 4.375,7.5 0.4125,0.69609 0.825,1.39219 1.25,2.10938 4.21494,7.34216 5.67716,13.92999 5.375,22.39062 l -10,-1 c -0.14695,-0.79922 -0.29391,-1.59844 -0.44531,-2.42188 C 736.86233,142.29143 734.10848,135.3793 730,128 Z m -50.88672,7.96094 C 690.4503,130.06633 695.66812,131.63169 700,135 c 6.92298,7.33546 11.51147,12.83371 11.32031,23.04688 C 710.60377,164.65303 707.87911,171.3997 703,176 c -4.03267,2.08835 -6.43602,3 -11,3 l -1,-7 2.75,-1.5 c 3.97296,-2.68316 5.81694,-5.97664 7.25,-10.5 0.93389,-5.00111 0.43207,-8.86028 -2.0625,-13.3125 -2.71989,-3.79573 -5.41614,-6.33024 -9.9375,-7.6875 -7.08412,-1.01655 -13.15025,-0.27694 -19,4 -4.79882,5.04492 -5.4153,9.38458 -5.34375,16.13672 0.54114,4.50744 2.29369,7.55294 5.34375,10.86328 5.23326,3.95685 11.66301,3.70263 18,4 l 1,7 c -8.85297,1.29487 -15.99725,1.37781 -24,-3 -4.93201,-4.55262 -8.5368,-12.48209 -10,-19 -0.24823,-7.12974 2.2162,-13.04941 6,-19 5.99375,-6.33625 15.21825,-10.21472 24.11328,-10.03906 z M 726,131 c 5.53925,4.74793 8.02896,10.33022 8.75,17.5 0.0993,1.49902 0.18848,2.99895 0.25,4.5 h -8 c -1.01911,-3.05734 -2.03528,-6.11244 -3,-9.1875 -1.59589,-4.48845 -2.64956,-5.63728 -7,-7.8125 z m -11.56445,8.01758 c 1.4049,0.0842 2.83088,0.4958 4.56445,0.98242 1.46114,2.5192 2.22715,4.27871 3,7 0.39188,1.11375 0.78375,2.2275 1.1875,3.375 2.42714,10.82877 -0.69131,19.25457 -6.1875,28.625 -4.77465,6.18899 -11.77915,9.36208 -19,12 h -2 c -1.49821,-3.37097 -2,-5.20442 -2,-9 0.65227,-0.20754 1.30453,-0.41508 1.97656,-0.62891 7.2191,-2.54478 11.65572,-5.43989 15.01563,-12.4375 2.31068,-6.15082 4.41693,-13.93669 2.17187,-20.30468 -1.05635,-2.11197 -1.05635,-2.11197 -2.2539,-3.97266 C 710,143 710,143 710,140 c 1.64683,-0.82341 3.03064,-1.06662 4.43555,-0.98242 z m -32.82813,2.65234 c 1.96195,-0.0768 4.0586,0.11608 6.39258,0.33008 4.70674,1.62597 7.47073,3.69087 10,8 1.24329,3.96489 1.67617,7.34688 0.0781,11.25391 -2.52737,4.23569 -5.135,7.58986 -9.82812,9.43359 -4.719,0.65542 -8.65215,1.0388 -13,-0.9375 -4.0122,-3.1206 -6.98485,-5.68941 -8.25,-10.75 0,-6.13656 1.28651,-9.07839 5.42969,-13.55469 3.01044,-2.77079 5.90781,-3.64732 9.17773,-3.77539 z M 728,157 h 8 c -0.25767,10.37709 -3.5118,20.79433 -10,29 -0.7193,0.9668 -0.71929,0.9668 -1.45312,1.95312 -4.4199,5.57649 -9.08823,8.24387 -15.54688,11.04688 -1.13437,0.5775 -2.26875,1.155 -3.4375,1.75 C 703,202 703,202 700,203 l -2,-9 3.5,-1.75 2.21094,-1.12109 c 1.44724,-0.71375 2.90986,-1.39777 4.39062,-2.03907 8.4394,-3.76351 12.21734,-9.83093 15.79688,-18.15625 C 725.61019,166.37498 726.87379,161.73374 728,157 Z m 12,0 c 6.15234,-0.0977 6.15234,-0.0977 8,0 l 1,1 c -0.32108,14.05358 -4.78737,27.22487 -14,38 -3.33333,-1.33333 -6.66667,-2.66667 -10,-4 l 1.17188,-1.46875 C 734.10518,180.32007 737.75502,169.65111 740,157 Z m -145,1 h 7 c 0.18176,1.01578 0.36352,2.03157 0.55078,3.07812 4.02412,24.37368 4.02412,24.37367 18.66797,43.49219 3.26837,2.85523 6.04232,5.99165 8.90625,9.24219 4.27281,4.76523 7.83805,7.93644 13.875,10.1875 1.05187,0.53625 2.10375,1.0725 3.1875,1.625 4.30574,1.83411 8.88004,2.15457 13.48438,2.76953 3.20123,0.58238 5.83438,1.48308 8.82812,2.73047 8.62058,3.38531 17.53731,2.07002 26.5,0.875 3.00222,-0.12449 6.00164,-0.22307 9,0 1,1 1,1 1.125,3.5 C 706,238 706,238 705,239 c -1.39261,0.22746 -2.79516,0.39474 -4.19922,0.53516 -0.87261,0.0877 -1.74547,0.17531 -2.64453,0.26562 -4.71641,0.43403 -9.4343,0.8307 -14.15625,1.19922 -0.70576,0.0617 -1.41152,0.12392 -2.13867,0.1875 -8.6732,0.70622 -14.70785,-0.93889 -22.53711,-4.65625 -5.90115,-2.71827 -11.94835,-4.4884 -18.44922,-4.71875 -9.29229,-1.94838 -16.28988,-12.07089 -21.8125,-19.375 -3.64696,-4.31004 -8.00542,-8.02481 -12.65625,-11.21875 C 597.91958,193.39338 596.49168,173.02752 595,162 Z m 17.93359,0.90234 C 615,159.00004 615,159 616,160 c 0.13418,2.31095 0.23161,4.62407 0.3125,6.9375 0.33252,6.70931 1.78449,12.03739 4.6875,18.0625 0.29004,0.87398 0.58008,1.74797 0.87891,2.64844 1.36103,2.85485 2.30718,3.09284 5.12109,4.35156 1.89453,1.88281 1.89453,1.88281 3.8125,4.125 0.69867,0.8018 1.39734,1.60359 2.11719,2.42969 1.29572,1.53042 2.57476,3.07531 3.82812,4.64062 4.14857,5.07476 8.34463,7.99217 14.24219,10.80469 1.33379,0.66575 2.66727,1.33213 4,2 -0.54724,3.37463 -1.0549,5.08235 -3,8 -9.52451,-2.56689 -16.70047,-6.58382 -22.33594,-14.78516 -4.10258,-5.46048 -9.39201,-10.05906 -14.33594,-14.75 -6.58716,-6.97399 -7.06816,-16.39151 -7.93359,-25.51172 C 607.05946,165.59583 606.6,162.31828 606,159 c 1.47907,-0.0269 2.95827,-0.0463 4.4375,-0.0625 0.82371,-0.0116 1.64742,-0.0232 2.49609,-0.0352 z M 753,160 h 10 c -0.33333,1.66667 -0.66667,3.33333 -1,5 -0.22816,1.2027 -0.45633,2.40539 -0.69141,3.64453 C 758.51743,182.39342 753.34085,195.32474 744,206 h -2 c -1.71436,-1.95927 -3.38405,-3.9588 -5,-6 1.38128,-2.93357 2.99605,-5.48669 4.875,-8.125 6.50273,-9.75409 8.66304,-20.58664 11.125,-31.875 z m 12,1 h 8 c -3.76841,18.22065 -3.76841,18.22065 -7.07812,26.55859 -0.93561,2.4778 -1.58404,4.93825 -2.23438,7.50391 C 762.01682,200.87276 758.62119,205.24446 755,210 l -2,3 c -2.49362,-1.20381 -4.68143,-2.45429 -7,-4 1.43279,-3.10438 3.18858,-5.6543 5.25,-8.375 C 759.79557,188.40182 762.53327,175.42314 765,161 Z m -42,33 c 3.37504,1.18582 5.64723,2.27574 8,5 -1.31561,3.94683 -3.47274,5.12718 -7,7 -3.04396,1.31268 -6.10491,2.55471 -9.19531,3.75391 -2.81367,1.12218 -2.81367,1.12218 -4.98438,2.89843 C 708,214 708,214 705,214 l -2,-9 c 3.85547,-2.37891 7.34169,-4.1977 11.6875,-5.5 3.68063,-1.13685 5.86275,-2.41119 8.3125,-5.5 z m 10,8 c 1.875,0.6875 1.875,0.6875 4,2 0.72119,1.64381 1.39401,3.31033 2,5 -5.17977,3.77868 -10.24073,7.31234 -16.05859,10.02734 -2.15396,1.07915 -4.11522,2.33903 -6.12891,3.66016 -2.91671,1.87544 -5.29531,2.98276 -8.8125,3.3125 l -1,-9 c 3.90625,-1.95313 7.8125,-3.90625 11.71875,-5.85938 0.70254,-0.35383 1.40508,-0.70769 2.12891,-1.07226 1.45799,-0.7237 2.92457,-1.4303 4.39843,-2.12109 0.71286,-0.33838 1.42571,-0.67676 2.16016,-1.02539 0.9639,-0.44714 0.9639,-0.44812 1.94727,-0.9043 C 731.33205,204.95137 731.33205,204.95234 733,202 Z m 8,9 c 3.82488,0.39568 5.42525,2.3065 8,5 -6.64341,4.41973 -13.41633,8.33231 -20.49023,12 -4.84158,2.54899 -9.27285,5.46207 -13.6543,8.75 C 713,238 713,238 711,238 l -1,-9 c 0.77344,-0.37512 1.54687,-0.75023 2.34375,-1.13672 5.37173,-2.63933 10.61354,-5.30929 15.63672,-8.5664 3.28491,-2.10947 6.65713,-4.07304 10.01562,-6.0625 C 739.92331,212.15375 739.92331,212.15375 741,211 Z m -83,7 c 1.92199,0.21656 1.92199,0.21656 3.88281,0.4375 12.88309,1.40273 25.40464,2.39075 38.32422,0.68359 0.59168,-0.04 1.18336,-0.0799 1.79297,-0.12109 1,1 1,1 1.09766,3.06641 -0.0116,0.82371 -0.0232,1.64742 -0.0352,2.49609 -0.009,0.82629 -0.0181,1.65258 -0.0273,2.50391 -0.0116,0.63808 -0.0232,1.27617 -0.0352,1.93359 -4.99319,0.73681 -9.98854,1.39883 -15,2 -1.20656,0.15275 -1.20656,0.15275 -2.4375,0.30859 -5.90163,0.38038 -11.20089,-1.55055 -16.7168,-3.4414 C 664.54638,226.39942 660.51864,225.51055 656,225 c 0.875,-4.75 0.875,-4.75 2,-7 z" />
    <path
       d="m 646,116 c 0.66,0.33 1.32,0.66 2,1 -0.66,0.66 -1.32,1.32 -2,2 0.33,0.66 0.66,1.32 1,2 -1.06477,0.77988 -2.12953,1.55977 -3.22656,2.36328 -4.5209,3.8775 -6.17896,8.31844 -8.14844,13.82422 -0.3416,0.9017 -0.6832,1.8034 -1.03516,2.73242 -3.82507,9.65093 -3.82507,9.65093 -2.65234,19.76758 1.05437,3.28717 1.26415,5.88356 1.4375,9.3125 0.67638,8.88024 5.69849,13.30821 11.54687,19.60937 C 647,191 647,191 648.75,194.25 c 4.67216,5.71042 11.9847,8.27838 19.14453,9.3125 2.43213,0.1603 4.86794,0.27511 7.30469,0.33203 C 678,204 678,204 680,205 c 2.82134,0.23511 5.64125,0.38206 8.46875,0.52344 0.83531,0.15726 1.67062,0.31453 2.53125,0.47656 0.99,1.485 0.99,1.485 2,3 -14.30799,2.30774 -29.42193,0.45928 -42,-7 -2.57422,-2.36328 -2.57422,-2.36328 -5,-5 -0.825,-0.87398 -1.65,-1.74797 -2.5,-2.64844 C 629.10265,178.64945 629.10265,178.64945 628.4375,168.375 628.23048,165.29087 627.98279,162.94837 627,160 c -1.1217,-12.99082 3.77696,-28.2755 12.1875,-38.3125 2.19563,-2.09805 4.27357,-4.02743 6.8125,-5.6875 z"
       fill="#181919"
       id="path25"
       style="fill:#1a1a1a;fill-opacity:0.98000002;fill-rule:nonzero" />
    <path
       d="m 647,131 c 0.99,0 1.98,0 3,0 -0.64408,6.44894 -2.809,11.10563 -5.72266,16.81641 -3.44245,8.57982 0.68253,18.87189 3.72266,27.18359 3.97017,7.85087 11.88043,13.8516 20,17 2.99307,0.50295 5.97223,0.80488 9,1 -1.98,0.495 -1.98,0.495 -4,1 0,0.66 0,1.32 0,2 -9.09377,-0.34976 -17.70787,-4.07899 -24,-10.75 -3.41101,-4.33223 -5.26659,-9.05851 -7,-14.25 -0.39188,-1.05188 -0.78375,-2.10375 -1.1875,-3.1875 -0.93775,-3.24607 -1.35363,-6.46933 -1.8125,-9.8125 -0.33,-0.33 -0.66,-0.66 -1,-1 -0.0838,-6.73713 2.06364,-12.15283 5.0625,-18.0625 0.56558,-1.15532 0.56558,-1.15532 1.14258,-2.33398 0.91947,-1.87386 1.85547,-3.7396 2.79492,-5.60352 z"
       fill="#141414"
       id="path34"
       style="fill:#1a1a1a;fill-opacity:0.98000002;fill-rule:nonzero" />
    <path
       d="m 625,122 c 1.3737,3.70988 0.5941,5.88161 -0.8125,9.5 -0.35707,0.93844 -0.71414,1.87687 -1.08203,2.84375 C 622,137 622,137 620.93359,138.82812 c -1.43577,3.34013 -1.67256,6.84007 -2.05859,10.42188 -0.12955,1.11762 -0.12955,1.11762 -0.26172,2.25781 -0.21115,1.82997 -0.41313,3.66099 -0.61328,5.49219 -2.37119,-1.81623 -2.95842,-2.75608 -3.46875,-5.75 -0.0697,-7.24818 0.89007,-12.42282 4.23437,-18.86719 1.3861,-2.50918 1.3861,-2.50918 2.35938,-5.94531 C 622,124 622,124 625,122 Z"
       fill="#151515"
       id="path43"
       style="fill:#1a1a1a;fill-opacity:0.98000002;fill-rule:nonzero" />
    <path
       d="m 722,170 c 0.66,0.66 1.32,1.32 2,2 -3.55137,8.48571 -7.75912,14.8475 -16.5,18.4375 -0.825,0.18563 -1.65,0.37125 -2.5,0.5625 -0.99,-0.99 -1.98,-1.98 -3,-3 0.66387,-0.29133 1.32773,-0.58266 2.01172,-0.88281 C 712.48103,183.18545 715.8785,179.43927 720,171 c 0.66,-0.33 1.32,-0.66 2,-1 z"
       fill="#141414"
       id="path44"
       style="fill:#1a1a1a;fill-opacity:0.98000002;fill-rule:nonzero" />
    <path
       d="m 683.75,126.9375 c 0.79922,0.009 1.59844,0.0181 2.42187,0.0273 0.60329,0.0116 1.20657,0.0232 1.82813,0.0352 -1.32,0.33 -2.64,0.66 -4,1 0,0.66 0,1.32 0,2 -0.59426,0.15855 -1.18852,0.31711 -1.80078,0.48047 -6.7242,1.89281 -12.90962,4.4943 -19.19922,7.51953 0.16797,-2.32813 0.16797,-2.32813 1,-5 2.36328,-1.54688 2.36328,-1.54688 5.3125,-2.75 0.96551,-0.40734 1.93102,-0.81469 2.92578,-1.23438 4.01143,-1.4752 7.2314,-2.14107 11.51172,-2.07812 z"
       fill="#181818"
       id="path45"
       style="fill:#1a1a1a;fill-opacity:0.98000002;fill-rule:nonzero" />
    <path
       d="m 711,164 c 0.66,0.33 1.32,0.66 2,1 -1.33158,5.91812 -4.65422,9.92927 -9,14 -3.16133,1.88718 -5.31908,2.20449 -9,2 1,-3 1,-3 2.67187,-3.85156 0.68579,-0.25524 1.37157,-0.51047 2.07813,-0.77344 4.60822,-2.10591 6.1425,-4.96352 8.24219,-9.44922 C 709,165 709,165 711,164 Z"
       fill="#101010"
       id="path46"
       style="fill:#1a1a1a;fill-opacity:0.98000002;fill-rule:nonzero" />
    <path
       d="m 687.25,216.9375 c 0.74508,0.005 1.49016,0.009 2.25781,0.0137 1.83077,0.0117 3.66149,0.0297 5.49219,0.0488 0,0.99 0,1.98 0,3 -3.50095,1.16698 -6.31222,1.13268 -10,1.125 -1.2375,0.003 -2.475,0.005 -3.75,0.008 C 678,221 678,221 675,220 c 0,-0.66 0,-1.32 0,-2 4.09004,-1.14983 8.03177,-1.11094 12.25,-1.0625 z"
       fill="#212222"
       id="path47"
       style="fill:#1a1a1a;fill-opacity:0.98000002;fill-rule:nonzero" />
    <path
       d="m 720,196 c -0.33,0.99 -0.66,1.98 -1,3 -1.85547,0.84375 -1.85547,0.84375 -4.1875,1.5 -4.77679,1.45281 -9.21867,2.90617 -12.8125,6.5 -0.0625,-2.75 -0.0625,-2.75 1,-6 2.81309,-1.84387 5.83318,-2.9042 9,-4 1.13437,-0.43313 2.26875,-0.86625 3.4375,-1.3125 C 718,195 718,195 720,196 Z"
       fill="#1C1D1D"
       id="path48"
       style="fill:#1a1a1a;fill-opacity:0.98000002;fill-rule:nonzero" />
    <path
       d="m 664,82 c 0,0.66 0,1.32 0,2 0.66,0.33 1.32,0.66 2,1 -9.9,2.97 -9.9,2.97 -20,6 0,-1.32 0,-2.64 0,-4 2.24732,-0.841243 4.49739,-1.673148 6.75,-2.5 0.63422,-0.238477 1.26844,-0.476953 1.92187,-0.722656 C 658.03287,82.551982 660.36872,82 664,82 Z"
       fill="#131414"
       id="path49"
       style="fill:#1a1a1a;fill-opacity:0.98000002;fill-rule:nonzero" />
    <path
       d="m 722,170 c 0.66,0.66 1.32,1.32 2,2 -0.6875,2.4375 -0.6875,2.4375 -2,5 -2.625,0.8125 -2.625,0.8125 -5,1 2.75,-6.875 2.75,-6.875 5,-8 z"
       fill="#1B1B1C"
       id="path52"
       style="fill:#1a1a1a;fill-opacity:0.98000002;fill-rule:nonzero" />
    <path
       d="m 762,163 c 0.99,0.33 1.98,0.66 3,1 -0.33,2.31 -0.66,4.62 -1,7 -0.33,-0.66 -0.66,-1.32 -1,-2 -0.66,0 -1.32,0 -2,0 -0.33,0.99 -0.66,1.98 -1,3 0.875,-6.75 0.875,-6.75 2,-9 z"
       fill="#262727"
       id="path55"
       style="fill:#1a1a1a;fill-opacity:0.98000002;fill-rule:nonzero" />
    <path
       d="m 720,196 c -0.33,0.99 -0.66,1.98 -1,3 -1.875,0.875 -1.875,0.875 -4,1 -1.75,-1.4375 -1.75,-1.4375 -3,-3 5.75,-2.125 5.75,-2.125 8,-1 z"
       fill="#151515"
       id="path57"
       style="fill:#1a1a1a;fill-opacity:0.98000002;fill-rule:nonzero" />
    <path
       d="m 711,164 c 0.66,0.33 1.32,0.66 2,1 -0.1875,1.875 -0.1875,1.875 -1,4 -2.5625,1.25 -2.5625,1.25 -5,2 0.60184,-2.02045 1.27306,-4.02111 2,-6 0.66,-0.33 1.32,-0.66 2,-1 z"
       fill="#202020"
       id="path58"
       style="fill:#1a1a1a;fill-opacity:0.98000002;fill-rule:nonzero" />
  </g>
</svg>
