<?xml version="1.0" encoding="UTF-8" standalone="no"?>
<svg
   version="1.1"
   width="970"
   height="320"
   id="svg59"
   sodipodi:docname="podlog-logo-dark-theme.svg"
   inkscape:version="1.4.3 (0d15f75, 2025-12-25)"
   xmlns:inkscape="http://www.inkscape.org/namespaces/inkscape"
   xmlns:sodipodi="http://sodipodi.sourceforge.net/DTD/sodipodi-0.dtd"
   xmlns="http://www.w3.org/2000/svg"
   xmlns:svg="http://www.w3.org/2000/svg">
  <defs
     id="defs59" />
  <sodipodi:namedview
     id="namedview59"
     pagecolor="#ffffff"
     bordercolor="#000000"
     borderopacity="0.25"
     inkscape:showpageshadow="2"
     inkscape:pageopacity="0.0"
     inkscape:pagecheckerboard="true"
     inkscape:deskcolor="#d1d1d1"
     showgrid="false"
     inkscape:zoom="1.2969265"
     inkscape:cx="513.13626"
     inkscape:cy="207.79898"
     inkscape:window-width="1920"
     inkscape:window-height="1008"
     inkscape:window-x="0"
     inkscape:window-y="0"
     inkscape:window-maximized="1"
     inkscape:current-layer="svg59" />
  <path
     id="path3"
     style="fill:#ffffff;fill-opacity:0.98;fill-rule:nonzero"
     d="M 860.04687,83.804687 C 856.27403,84.046535 852.72586,84.316924 849,85 c -15.27019,3.268447 -28.82036,13.058854 -37.33985,26.08984 -10.50125,18.40808 -15.76769,41.37683 -10.40625,62.37891 L 802,176 c 4.03433,15.288 9.43894,28.30864 21.875,38.59375 C 839.58973,226.6941 856.51169,229.8671 876,228 c 11.67533,-2.09497 21.33279,-7.24819 28.82031,-16.46093 L 906,210 c 0.39319,9.29117 0.0234,17.0307 -4.21875,25.40625 -5.25228,8.75379 -13.02888,13.14556 -22.69922,15.91016 -19.83861,4.02723 -42.48198,-0.23294 -59.83594,-10.33594 l -1.86328,-1.11328 c -1.25459,-0.74406 -2.50722,-1.49144 -3.75781,-2.24219 -1.14638,-0.72772 -2.29974,-1.44461 -3.46094,-2.14843 C 806.63127,233.82793 805.62918,234.06634 802,235 c 0.0986,3.59191 0.19999,7.18372 0.30664,10.77539 0.044,1.47069 0.0876,2.9414 0.13086,4.41211 0.059,2.15985 0.11859,4.31884 0.18359,6.47852 l 0.0625,2.06445 c 0.1206,4.1866 0.18698,8.21883 1.31641,12.26953 6.00075,6.00076 6.00075,6.00125 24.86718,12.30274 L 831,284 c 1.28872,0.43205 2.58039,0.85543 3.875,1.26953 24.24894,6.96642 54.99602,4.66969 77.125,-7.26953 14.38397,-8.31655 23.73152,-19.4094 28.35742,-35.52539 L 941,240 c 3.48401,-12.97865 3.48391,-12.97819 3.34765,-42.66211 -0.018,-3.70723 -0.0244,-7.41577 -0.0254,-11.12304 -0.001,-6.22022 -0.0115,-12.43998 -0.0332,-18.66016 -0.0291,-8.0312 -0.0463,-16.06251 -0.0508,-24.09375 -0.004,-6.98179 -0.0136,-13.96354 -0.0273,-20.94532 -0.005,-2.22717 -0.009,-4.45446 -0.0117,-6.68164 -0.004,-3.5567 -0.0103,-7.11323 -0.0234,-10.66992 l -0.0156,-3.91211 -0.002,-3.738279 -0.0176,-3.375 C 944.13539,92.42547 944.10278,90.710123 944,89 c -1.11496,-1.114952 -1.11483,-1.114677 -6.42383,-1.138672 l -2.29492,0.0059 c -1.58724,-0.002 -3.17448,-0.0032 -4.76172,-0.0039 -2.5152,0.0064 -5.02973,0.01121 -7.54493,0.0059 -1.63756,-0.0042 -3.27648,-0.0046 -4.91406,-0.0039 l -2.34179,0.002 C 913.13646,87.860287 910.58189,87.899085 908,88 c -1,1 -1,1 -1.31641,3.941406 l -0.24609,3.621093 -0.25391,3.628907 L 906,102 c -1.50355,-1.74179 -3.06798,-3.376032 -4.70704,-4.992188 C 889.69428,86.851556 875.16078,83.291771 860.04687,83.804687 Z m 14.70508,32.539063 c 5.59982,0.13988 11.26445,1.71058 16.62695,4.83203 8.53751,5.9419 13.52432,12.99804 16.23438,23.11328 1.99388,13.97735 0.94314,26.91698 -7.65625,38.44922 -6.68909,7.73051 -14.86007,11.46634 -24.94532,12.45703 -8.31318,0.44298 -15.92395,-2.10768 -22.32421,-7.44531 -8.38914,-8.09749 -13.67549,-16.74908 -14.10938,-28.67188 C 838.48676,146.73001 841.17662,136.74517 849,127 c 7.26678,-7.14936 16.41891,-10.88938 25.75195,-10.65625 z" />
  <path
     id="path4"
     style="fill:#ffffff;fill-opacity:0.98;fill-rule:nonzero"
     d="M 105.86719,83.482422 C 91.154559,83.164795 76.492638,88.397444 65.437502,99.375 l -3.4375,3.625 -1,-15 c -4.249346,-0.0205 -8.498664,-0.03778 -12.748046,-0.04883 -1.729819,-0.0041 -3.459637,-0.0087 -5.189454,-0.01367 -2.557592,-0.0127 -5.114252,-0.02563 -7.671872,-0.03125 l -2.41797,-0.0039 c -2.66619,-0.01759 -5.3064,0.0091 -7.97266,0.09766 -1.11418,1.114179 -1.11444,1.114103 -1.13867,6.197266 l 0.006,2.27539 c -0.007,2.543799 -0.0142,5.087048 -0.0137,7.630858 5.7e-4,1.87176 -9.8e-4,3.74348 -0.004,5.61524 -0.0101,5.08473 -0.0146,10.16915 -0.0156,15.2539 -5.3e-4,4.32257 -0.002,8.64423 -0.006,12.9668 -0.008,10.13624 -0.0143,20.27391 -0.0137,30.41015 7.3e-4,10.55645 -0.004,21.11154 -0.0195,31.66797 -0.0136,9.11708 -0.0225,18.23448 -0.0234,27.35157 3.8e-4,5.42879 9.5e-4,10.85831 -0.008,16.2871 -0.0101,5.19816 -0.0166,10.39559 -0.0117,15.59376 0.003,1.90997 0.005,3.82048 0.006,5.73046 -0.009,2.67252 -0.0174,5.34506 -0.0117,8.01758 l 0.006,2.40235 c -0.0177,2.56958 0.0527,5.03101 0.24804,7.59961 2.22992,2.22992 2.23005,2.22937 7.51172,2.27734 l 2.26953,-0.0117 c 1.57943,0.004 3.15886,0.006 4.73828,0.008 2.495509,-0.0128 4.990804,-0.0224 7.486332,-0.0117 1.627383,0.008 3.253455,0.0111 4.880859,0.01 l 2.332031,-0.006 c 2.630049,0.0142 5.151849,-0.066 7.78125,-0.26562 2,-2 2.000824,-1.99985 2.279297,-5.01172 l 0.03906,-3.91602 c 0.03198,-2.26756 0.06132,-4.53501 0.07813,-6.80273 0.01161,-1.62279 0.02635,-3.24642 0.04492,-4.86914 0.05305,-4.24689 0.09992,-8.49318 0.136719,-12.74024 0.03801,-4.40333 0.08476,-8.80577 0.134765,-13.20898 0.09792,-8.56409 0.183876,-17.12907 0.261719,-25.69336 l 0.02539,-2.75781 1.636719,1.67187 2.164063,2.18945 c 6.453194,6.55893 14.307831,10.55364 23.136718,13.07618 13.806018,2.8989 28.727448,1.19874 41.171878,-5.75391 l 1.89062,-1.18359 c 5.87433,-3.65743 10.95127,-7.4632 15.34375,-12.83985 l 1.65625,-2.16015 c 4.16287,-5.37117 7.80014,-10.66469 10.08985,-17.09766 l 0.91015,-2.90234 c 5.34458,-16.55209 6.90063,-36.35265 1.96478,-53.20735 L 163,129 c -3.7505,-12.04572 -9.8066,-23.48357 -19.86719,-31.453125 L 141,96 138.61719,94.203125 c -9.83338,-6.868689 -21.30684,-10.47366 -32.75,-10.720703 z m -2.36328,28.568358 c 5.33493,0.0163 10.64644,1.51048 16.08203,4.55469 9.41826,6.156 14.16709,14.89601 16.69531,25.76172 0.26908,3.1517 0.28014,6.276 0.25,9.4375 0.0116,1.2114 0.0116,1.21139 0.0234,2.44726 -0.0359,11.12563 -3.34102,21.30407 -11.08594,29.49024 -7.58269,7.09534 -15.45132,9.12305 -25.664061,9.03125 -7.99901,-0.92228 -15.572397,-5.27699 -20.992188,-11.21485 -8.433718,-12.06975 -10.026911,-25.27812 -8.070311,-39.55468 2.31681,-10.5074 7.395362,-19.66241 16.539062,-25.63672 5.529371,-2.87118 10.887723,-4.33272 16.222658,-4.31641 z" />
  <path
     id="path5"
     style="fill:#ffffff;fill-opacity:0.98;fill-rule:nonzero"
     d="m 472.68945,23.748047 c -6.25516,0.02683 -7.9097,0.850695 -7.9375,7.259765 l 0.0215,2.103516 c -9.3e-4,2.329905 0.001,4.660367 0.0156,6.990235 0.0108,1.667397 0.0178,3.334524 0.0215,5.001953 0.005,4.363701 0.0174,8.728145 0.0391,13.091797 0.0226,4.524306 0.0364,9.047915 0.0469,13.572265 0.0197,8.799688 0.0494,17.598822 0.0899,26.398438 L 465,101 C 457.51039,93.405846 448.86661,87.720976 438.34961,85.371094 420.16584,82.502359 404.32023,85.323794 389.25,95.875 c -14.59241,11.02629 -21.87743,27.86541 -24.70703,45.6211 -2.98474,22.13639 0.69477,45.83302 14.35937,64.0625 11.57629,13.47333 24.76646,21.03944 42.69141,22.79297 17.21704,0.68723 30.39448,-5.70354 42.97265,-17.03125 L 466,210 l 0.14843,2.55469 0.22657,3.32031 c 0.21093,3.30469 0.21093,3.30469 0.625,6.125 2.22882,2.22883 2.22881,2.22854 7.38476,2.25196 l 2.21289,-0.0215 c 1.53842,-9.4e-4 3.07683,-0.003 4.61524,-0.006 2.43182,-0.019 4.86302,-0.0369 7.29492,-0.0391 1.5863,1.6e-4 3.17347,-0.003 4.75977,-0.008 l 2.26757,-0.01 c 2.49845,-0.004 4.96731,-0.0547 7.46485,-0.16797 1.11415,-1.11415 1.11322,-1.11409 1.13281,-6.30664 l -0.006,-2.32422 c 0.005,-2.59859 0.009,-5.19632 0.006,-7.79492 -0.002,-1.91207 -0.003,-3.82425 -0.002,-5.73633 0.006,-5.19389 0.009,-10.38813 0.006,-15.58203 -0.003,-5.526 -0.003,-11.05212 -0.002,-16.57812 0.003,-9.23903 0.003,-18.47777 -0.002,-27.7168 -0.005,-10.78192 -0.007,-21.56378 -0.002,-32.34571 0.005,-9.31136 0.006,-18.622226 0.004,-27.933589 -0.002,-5.543578 -0.002,-11.087283 0,-16.63086 0.003,-5.309762 0.005,-10.619925 0,-15.929687 -0.002,-1.949239 -0.005,-3.898417 -0.006,-5.847656 0.003,-2.730847 0.006,-5.462514 0.002,-8.19336 l -0.004,-2.449219 C 504.13438,30.078044 504.09998,27.552276 504,25 c -1.11605,-1.11605 -1.11607,-1.115516 -6.55078,-1.164062 l -2.35157,-0.0039 c -1.62825,-0.0068 -3.2565,-0.01266 -4.88476,-0.01758 -2.57886,2.46e-4 -5.15754,-0.0013 -7.73633,-0.01953 -1.67865,-0.01236 -3.35647,-0.02041 -5.03516,-0.02344 l -2.40625,-0.002 z m -37.4668,91.933593 c 5.33494,0.0163 10.64645,1.51243 16.08203,4.55664 9.41827,6.156 14.1671,14.89601 16.69532,25.76172 0.26908,3.1517 0.28013,6.276 0.25,9.4375 l 0.0234,2.44727 c -0.0359,11.12563 -3.34102,21.30406 -11.08593,29.49023 -7.5827,7.09534 -15.45133,9.12305 -25.66407,9.03125 -7.99901,-0.92228 -15.57239,-5.27698 -20.99218,-11.21484 -8.43376,-12.06975 -10.02692,-25.27813 -8.07032,-39.55469 C 404.77774,135.12932 409.85629,125.97431 419,120 c 5.52937,-2.87118 10.88772,-4.33467 16.22265,-4.31836 z" />
  <path
     d="m 298,47 c 2.93453,0.366817 3.86437,0.864372 6,3 0.59852,2.618665 1.08151,5.171001 1.49219,7.820313 0.19165,1.197997 0.19165,1.197997 0.38717,2.420196 1.46674,9.50533 2.38475,19.058529 3.24564,28.634491 0.0856,0.928014 0.1712,1.856028 0.2594,2.812164 C 310.8321,107.45194 311.76248,123.16618 312,139 c 0.66,0 1.32,0 2,0 -0.0348,-1.0841 -0.0696,-2.1682 -0.10547,-3.28516 -0.23295,-11.08179 0.41676,-22.00493 1.48047,-33.02734 0.0948,-1.01418 0.0948,-1.01418 0.19156,-2.04886 C 317.26164,82.738363 317.26164,82.738363 321,79 c 2,0.0625 2,0.0625 4,1 1.93693,3.850569 2.40797,7.442821 2.78125,11.707031 0.11876,1.302437 0.23751,2.604873 0.35986,3.946778 0.0587,0.680524 0.11735,1.361048 0.1778,2.062194 0.30241,3.501057 0.63029,6.999747 0.95453,10.498837 0.0936,1.0217 0.0936,1.0217 0.18918,2.06403 0.47998,5.20847 1.01891,10.40538 1.66238,15.59613 0.14695,1.19367 0.29391,2.38734 0.44531,3.61719 0.16964,2.44027 0.16964,2.44027 1.42969,3.50781 0.0752,-0.88784 0.15034,-1.77568 0.22778,-2.69043 0.28596,-3.3035 0.5836,-6.60551 0.88916,-9.90723 0.12969,-1.42731 0.25474,-2.85506 0.375,-4.2832 0.17402,-2.05665 0.36481,-4.11117 0.55884,-6.16601 0.10997,-1.23589 0.21995,-2.47178 0.33325,-3.74512 C 336.01025,102.9466 336.7792,101.41311 339,99 c 3.875,0.875 3.875,0.875 5,2 0.6682,3.38822 1.05532,6.82618 1.5,10.25 0.13382,1.02166 0.26764,2.04332 0.40552,3.09595 1.27034,10.1996 1.78718,20.38608 2.09448,30.65405 0.66,0 1.32,0 2,0 -0.0619,-1.0725 -0.12375,-2.145 -0.1875,-3.25 0.19293,-3.85866 0.58415,-5.03818 3.1875,-7.75 1.92578,0.58984 1.92578,0.58984 4,2 0.79297,3.00391 0.79297,3.00391 1.1875,6.5625 0.1299,4.04105 0.1299,4.04105 1.8125,7.4375 0.3609,7.45865 0.3609,7.45865 -2,11 -4.75,-0.875 -4.75,-0.875 -7,-2 -0.18563,1.88719 -0.18563,1.88719 -0.375,3.8125 -0.32368,3.29075 -0.69105,4.28657 -2.625,7.1875 -1.875,-0.125 -1.875,-0.125 -4,-1 -2.28259,-4.6793 -2.17523,-8.91825 -2,-14 -0.66,0 -1.32,0 -2,0 0.0619,1.13438 0.12375,2.26875 0.1875,3.4375 0.008,4.9108 -0.72726,9.6133 -1.5625,14.4375 -0.12609,0.74951 -0.25217,1.49902 -0.38208,2.27124 -0.63949,3.52698 -1.2298,5.83408 -3.24292,8.85376 -2.3125,0 -2.3125,0 -5,-1 -4.59285,-9.1857 -5.25736,-19.89624 -6,-30 -1.74009,1.74009 -1.29483,4.18033 -1.42969,6.55469 -0.0715,1.16402 -0.14308,2.32804 -0.21679,3.52734 -0.11312,1.87752 -0.11312,1.87752 -0.22852,3.79297 -0.57597,8.76013 -1.24805,17.45072 -2.625,26.125 -0.11843,0.76296 -0.23687,1.52593 -0.35889,2.31201 -1.15403,6.81615 -1.15403,6.81615 -3.14111,9.68799 -2.625,0.75 -2.625,0.75 -5,1 -2.4668,-2.92246 -3.47778,-5.10487 -4.09766,-8.86719 -0.24109,-1.43509 -0.24109,-1.43509 -0.48706,-2.89917 -0.15767,-1.02585 -0.31533,-2.0517 -0.47778,-3.10864 -0.25487,-1.60162 -0.25487,-1.60162 -0.51489,-3.2356 C 302.72501,170.34533 301.68855,152.72121 301,135 c -0.73543,10.06307 -1.24504,20.1158 -1.60019,30.19875 -0.0857,2.41331 -0.17552,4.82643 -0.26652,7.23954 -0.25823,6.8475 -0.51473,13.69502 -0.7556,20.54316 -0.14871,4.21917 -0.30649,8.43792 -0.47033,12.65653 -0.0604,1.59948 -0.11738,3.19909 -0.17088,4.79881 -0.0747,2.22299 -0.16094,4.44525 -0.24991,6.6677 -0.0458,1.2627 -0.0917,2.5254 -0.1389,3.82636 C 297,224 297,224 295,227 c -2.375,-0.3125 -2.375,-0.3125 -5,-1 -6.49083,-9.73624 -6.25668,-26.42374 -7.73486,-37.80835 -0.39182,-3.01706 -0.79075,-6.03311 -1.19092,-9.04907 -0.25692,-1.94982 -0.51345,-3.89969 -0.76953,-5.84961 -0.11667,-0.88565 -0.23334,-1.7713 -0.35355,-2.68379 C 279.19178,164.74874 278.55711,158.88305 278,153 c -0.0376,1.48041 -0.0376,1.48041 -0.0759,2.99072 -0.0956,3.73137 -0.19541,7.46262 -0.29639,11.19385 -0.0428,1.60186 -0.0845,3.20375 -0.125,4.80566 C 277.36723,177.32817 277.20143,182.66414 277,188 c -0.0246,0.69525 -0.0492,1.3905 -0.0745,2.10681 -0.0747,1.93125 -0.1733,3.86152 -0.27313,5.79163 -0.0529,1.08716 -0.10587,2.17432 -0.1604,3.29443 -0.53703,3.06439 -1.43058,4.52056 -3.49195,6.80713 -1.875,-0.16016 -1.875,-0.16016 -4,-1 -1.125,-2.30859 -1.125,-2.30859 -2,-5.4375 -0.32742,-1.16918 -0.65484,-2.33836 -0.99218,-3.54297 -1.68165,-6.56039 -3.12578,-13.1749 -4.53223,-19.79883 C 260.67348,172.47536 259.83613,168.73786 259,165 c -0.19336,1.05961 -0.38672,2.11922 -0.58594,3.21094 -0.26261,1.3881 -0.52565,2.77611 -0.78906,4.16406 -0.18949,1.04801 -0.18949,1.04801 -0.38281,2.11719 -1.01563,5.28125 -1.01563,5.28125 -3.24219,7.50781 -2.375,0 -2.375,0 -5,-1 -4.2479,-4.89152 -5.96912,-10.92896 -8,-17 -1.07175,3.55786 -1.20401,6.98685 -1.375,10.6875 -0.38027,5.96589 -1.4279,10.77198 -3.625,16.3125 -2.33594,-0.21875 -2.33594,-0.21875 -5,-1 -1.47656,-1.96875 -1.47656,-1.96875 -2.625,-4.5 -0.41379,-0.8959 -0.82758,-1.7918 -1.25391,-2.71484 -1.32844,-3.30028 -2.37178,-6.62408 -3.25,-10.07032 C 223.58363,172.14895 223.29617,171.58305 223,171 c -1.3238,-0.36937 -2.65866,-0.70053 -4,-1 -1.48438,-1.52344 -1.48438,-1.52344 -2.75,-3.375 -0.42797,-0.60586 -0.85594,-1.21172 -1.29688,-1.83594 C 214,163 214,163 214,160 c -0.66,0 -1.32,0 -2,0 -0.0374,0.80824 -0.0748,1.61648 -0.11328,2.44922 -0.0657,1.06863 -0.13149,2.13726 -0.19922,3.23828 -0.087,1.58361 -0.087,1.58361 -0.17578,3.19922 -0.54954,3.34338 -1.59846,5.34854 -3.51172,8.11328 -2.23828,-0.0664 -2.23828,-0.0664 -5,-1 -1.6323,-2.32639 -2.91299,-4.43072 -4.1875,-6.9375 -2.45144,-4.84541 -2.45144,-4.84541 -5.8125,-9.0625 -0.31453,0.85465 -0.62906,1.7093 -0.95313,2.58984 -0.42796,1.10473 -0.85593,2.20946 -1.29687,3.34766 -0.41766,1.10215 -0.83531,2.2043 -1.26563,3.33984 C 188,172 188,172 185.82812,172.87891 184.9232,172.93881 184.9232,172.93881 184,173 c -2.684,-3.88717 -4.96249,-7.72122 -7,-12 -2.31,0 -4.62,0 -7,0 -1.26238,-2.52475 -1.09856,-4.312 -1.0625,-7.125 0.009,-0.91008 0.018,-1.82016 0.0273,-2.75781 0.0116,-0.69867 0.0232,-1.39735 0.0352,-2.11719 4.75,-1.125 4.75,-1.125 7,0 1.65,-3.96 3.3,-7.92 5,-12 1.32,0 2.64,0 4,0 3,5.625 3,5.625 3,9 0.9075,-0.2475 1.815,-0.495 2.75,-0.75 1.0725,-0.0825 2.145,-0.165 3.25,-0.25 2.20312,1.98437 2.20312,1.98437 4,4 0.4473,-1.21559 0.89461,-2.43117 1.35547,-3.68359 0.60963,-1.58504 1.22036,-3.16966 1.83203,-4.75391 0.29197,-0.80244 0.58394,-1.60488 0.88477,-2.43164 0.85329,-2.17453 1.67136,-4.16051 2.92773,-6.13086 2.73828,-1.03516 2.73828,-1.03516 5,-1 0.30293,0.5543 0.60586,1.10859 0.91797,1.67969 2.66317,4.60524 4.07607,6.39494 9.08203,8.32031 1.62386,2.24071 2.75543,4.51085 4,7 2.37446,-6.31079 3.30977,-12.85346 4.41211,-19.47656 0.16178,-0.9075 0.32355,-1.815 0.49023,-2.75 0.20871,-1.23098 0.20871,-1.23098 0.42164,-2.48682 0.76902,-2.6012 1.94098,-4.22398 3.67602,-6.28662 2.3125,0.0625 2.3125,0.0625 5,1 2.6669,4.71837 3.75009,9.78142 5.10547,15 1.54222,5.17218 3.73757,10.06081 5.89453,15 0.24907,-1.10456 0.24907,-1.10456 0.50317,-2.23145 0.7596,-3.34192 1.53428,-6.68017 2.30933,-10.01855 0.26103,-1.15887 0.52207,-2.31773 0.79102,-3.51172 0.39155,-1.67256 0.39155,-1.67256 0.79101,-3.37891 0.23566,-1.02641 0.47131,-2.05283 0.71411,-3.11035 0.92648,-2.85732 1.75692,-4.63511 3.89136,-6.74902 1.32,0 2.64,0 4,0 2.02712,7.23972 3.01702,14.55444 4,22 1.26938,-2.53876 1.15903,-4.38075 1.21094,-7.22266 0.0263,-1.08466 0.0525,-2.16933 0.0796,-3.28686 0.0279,-1.17248 0.0557,-2.34497 0.0845,-3.55298 0.2981,-9.67536 0.89047,-19.25742 2,-28.875 0.11392,-1.0526 0.22784,-2.1052 0.34521,-3.189697 0.12069,-0.977674 0.24138,-1.955347 0.36573,-2.962647 0.15541,-1.281852 0.15541,-1.281852 0.31396,-2.589599 C 271.09053,86.64991 272.22404,85.08398 274,83 c 1.65,0.33 3.3,0.66 5,1 3.14864,8.087494 4.13758,16.25189 5.125,24.8125 0.16977,1.39919 0.34033,2.79828 0.51172,4.19727 0.87428,7.23546 1.61771,14.46597 2.11279,21.73901 0.12287,2.28395 0.12287,2.28395 1.25049,4.25122 0.0309,-0.64384 0.0618,-1.28767 0.0937,-1.95102 0.3307,-6.84939 0.67376,-13.69808 1.02324,-20.54654 0.12802,-2.53826 0.25313,-5.07667 0.375,-7.61523 0.64795,-13.454951 1.46342,-26.851273 2.98853,-40.238773 0.1795,-1.587767 0.1795,-1.587767 0.36262,-3.207611 C 294.67186,50.328137 294.67186,50.328137 298,47 Z"
     fill="#050505"
     id="path6"
     style="fill:#ffffff;fill-opacity:0.98;fill-rule:nonzero" />
  <path
     d="m 534.72888,23.861053 c 0.80103,0.002 1.60206,0.004 2.42737,0.0061 0.81747,-9.57e-4 1.63493,-0.0019 2.47717,-0.0029 1.73173,-6.82e-4 3.46347,0.0012 5.19519,0.0053 2.66005,0.0053 5.31994,5.5e-5 7.97998,-0.0063 1.67839,6.61e-4 3.35677,0.0019 5.03516,0.0039 0.80103,-0.002 1.60206,-0.004 2.42737,-0.0061 5.61393,0.024 5.61393,0.024 6.72888,1.138946 0.1,2.552277 0.13441,5.077556 0.12698,7.630372 0.002,0.808692 0.003,1.617384 0.005,2.450582 0.004,2.730846 8.2e-4,5.461637 -0.002,8.192484 0.001,1.949239 0.003,3.898479 0.005,5.847717 0.005,5.309763 0.003,10.619506 -3.8e-4,15.929268 -0.003,5.543577 -1.8e-4,11.087153 0.001,16.63073 0.002,9.311364 -5.8e-4,18.622718 -0.005,27.934078 -0.005,10.78193 -0.004,21.56383 0.002,32.34575 0.005,9.23902 0.005,18.47805 0.003,27.71707 -0.002,5.526 -0.002,11.05199 0.001,16.57799 0.003,5.19389 9.1e-4,10.38776 -0.005,15.58166 -0.001,1.91207 -9.3e-4,3.82415 0.001,5.73622 0.003,2.5986 -6.6e-4,5.19711 -0.006,7.79571 0.002,0.76681 0.005,1.53362 0.007,2.32367 -0.0196,5.19255 -0.0196,5.19255 -1.13374,6.3067 -2.72724,0.10099 -5.42863,0.1397 -8.15625,0.13281 -1.2262,0.001 -1.2262,0.001 -2.47717,0.003 -1.73174,6.8e-4 -3.46347,-0.001 -5.19519,-0.005 -2.66006,-0.005 -5.31994,-6e-5 -7.97998,0.006 -1.67839,-6.7e-4 -3.35678,-0.002 -5.03516,-0.004 -0.80103,0.002 -1.60206,0.004 -2.42737,0.006 -5.61393,-0.024 -5.61393,-0.024 -6.72888,-1.13894 -0.1,-2.55228 -0.13441,-5.07756 -0.12698,-7.63037 -0.002,-0.8087 -0.003,-1.61739 -0.005,-2.45059 -0.004,-2.73084 -8.2e-4,-5.46163 0.002,-8.19248 -0.001,-1.94924 -0.003,-3.89848 -0.005,-5.84772 -0.005,-5.30976 -0.003,-10.6195 3.7e-4,-15.92927 0.003,-5.54357 1.9e-4,-11.08715 -0.001,-16.63073 -0.002,-9.31136 5.9e-4,-18.62272 0.005,-27.93408 0.005,-10.78192 0.004,-21.56382 -0.002,-32.34574 -0.005,-9.239029 -0.005,-18.47805 -0.003,-27.717077 0.002,-5.525999 0.002,-11.051988 -0.002,-16.577986 -0.003,-5.193895 -9e-4,-10.387765 0.005,-15.581657 0.001,-1.912074 9.4e-4,-3.824149 -0.001,-5.736222 -0.003,-2.598597 6.7e-4,-5.197115 0.006,-7.795707 -0.002,-0.766813 -0.004,-1.533626 -0.007,-2.323675 0.0242,-6.414573 0.48416,-6.41825 6.86258,-6.445513 z"
     fill="#000000"
     id="path7"
     style="fill:#ffffff;fill-opacity:0.98;fill-rule:nonzero" />
  <g
     id="g59">
    <path
       id="path2"
       style="fill:#ffffff;fill-opacity:0.98000002;fill-rule:nonzero"
       d="M 691.24805 58.197266 C 685.69624 58.153476 680.79683 59.395685 677.25 62.5625 L 676 64 C 673.77477 62.277241 671.83484 61.11339 669.01562 60.730469 C 645.10938 60.264212 623.13379 74.14309 606.26953 89.808594 C 605.49789 90.553672 604.74895 91.276836 604 92 C 603.26023 92.713203 602.54223 93.40543 601.82422 94.097656 C 598.7832 97.260556 596.5898 99.46411 596.5625 104 C 596.78344 105.515 596.78344 105.515 597 107 C 595.15308 107.30298 595.15308 107.30298 593 108 C 588.56373 113.70983 586.50028 119.80761 584.36133 126.66992 C 583.77328 128.62346 583.18321 130.57558 582.57031 132.52148 C 580.48462 139.11444 578.48252 145.0074 579 152 L 581 154 C 580.66764 154.57757 580.34407 155.13864 580.02148 155.69922 C 576.90088 162.7228 576.90186 162.72231 581.64844 180.03125 C 582.20224 181.96367 582.7548 183.89536 583.2793 185.83594 C 584.38385 189.94765 585.45601 194.03091 587 198 C 588.95405 200.79608 590.0196 202.64597 593.25 203.8125 C 593.845 203.87625 594.4225 203.9381 595 204 C 594.7025 204.99875 594.41375 205.96812 594.125 206.9375 C 593.52081 211.37122 593.52081 211.37122 598.05078 217.52734 C 598.71352 218.36805 599.35676 219.18402 600 220 C 603.5837 224.62555 606.99118 229.3265 611.50391 233.08594 L 614 235 C 616.19706 236.94474 618.40139 238.83328 620.70703 240.64844 C 623.19156 242.11291 624.25409 242.35905 627.0625 241.9375 C 628.06125 241.61875 629.03062 241.30937 630 241 C 630 244 630 244 630.6875 246 C 633.4066 250.14338 633.4068 250.14411 642.62109 252.78906 C 644.07886 253.19074 645.53486 253.59559 646.99023 254.00586 C 647.77573 254.22807 648.53838 254.44448 649.30078 254.66016 C 651.64059 255.31791 653.97069 255.99119 656.29102 256.71484 C 659.90414 257.86856 663.51698 259.01236 667.16406 260.05469 C 673.61194 261.64368 679.09251 262.30554 685 259 L 685 257 L 687 257 L 689 261 C 693.01527 261.17542 696.98622 261.2358 701 261 C 705.02963 259.65679 706.45791 258.77699 708.875 255.3125 C 709.44312 254.14469 709.44312 254.14469 710 253 C 711.5625 255 711.5625 255 714 257 C 719.13025 257.57643 722.71284 256.63129 727.25391 254.44922 C 727.97508 254.08398 728.67504 253.72949 729.375 253.375 C 730.80992 252.71765 732.23515 252.0386 733.64844 251.33594 C 736.67511 249.5815 736.91079 249.29905 737.97656 245.72656 C 737.98446 244.79953 737.992 243.89977 738 243 C 741.125 243.6875 741.125 243.6875 745 244 C 756.50525 239.92523 756.50476 239.92523 770.78711 218.47656 C 771.39937 217.54152 771.39986 217.54152 772 216.625 C 773.44388 214.44502 774.72987 212.29645 776 210 C 776.8985 206.9182 777.29758 205.7142 776.0625 202.75 C 774.9135 201.19875 774.9135 201.19875 775 200 L 780 200 C 783.01987 194.85136 785.2512 189.67505 786.7832 183.91602 C 787.05099 182.85374 787.05002 182.85374 787.3125 181.8125 C 788.5987 176.81789 789.18133 172.17808 789 167 L 786 166 C 787.48047 164.44531 787.48047 164.44531 789 162 C 790.22456 150.8078 788.42095 140.59215 784.55078 130.13672 C 784.23594 129.30423 783.93059 128.4955 783.625 127.6875 C 782.77222 125.41662 781.89183 123.16899 780.94531 120.93555 C 779.24211 117.44778 777.46534 114.52915 773.75 113.1875 C 773.155 113.12375 772.5775 113.0619 772 113 C 772.0897 110.66839 772.0777 108.33204 772 106 C 767.25238 94.130941 753.39709 84.552569 743.07031 77.910156 C 742.02641 77.260703 741.0132 76.630352 740 76 C 730.43807 70.026896 707.90347 58.328634 691.24805 58.197266 z M 681.23242 72.734375 C 682.43609 72.665242 683.71867 72.81948 684.9375 72.8125 C 687.62913 72.84802 690.31065 72.90489 693 73 C 694.0729 73.03553 694.07339 73.036016 695.16797 73.072266 C 711.20763 73.772424 722.84102 79.450454 735.46875 89.1875 C 738.02047 91.014658 740.53918 92.352995 743.375 93.6875 C 748.7649 96.237007 752.69707 99.347348 755 105 C 751.375 108 751.375 108 748 108 C 747.47148 107.11312 746.94297 106.22625 746.39844 105.3125 C 743.62208 100.8197 739.26416 99.192288 734.625 97 C 725.22058 92.514817 725.22058 92.514817 722.08594 88.9375 C 714.59406 80.931385 702.51901 81.218984 692.3125 80.75 C 690.91723 80.673414 689.52205 80.595298 688.12695 80.515625 C 684.75181 80.328766 681.37663 80.157246 678 80 C 677.9575 78.000452 677.9592 75.999584 678 74 C 678.90398 73.096014 680.02875 72.803508 681.23242 72.734375 z M 668.90625 73.28125 C 670.18075 73.300888 671.50207 73.521011 673 74 L 673 82 C 672.24719 82.0026 671.49437 82.005212 670.71875 82.007812 C 662.83168 82.294963 656.53442 83.942575 649.38281 87.091797 C 644.5076 89.156925 644.5076 89.157412 641.64453 88.269531 C 639.91882 86.937347 638.39793 85.677522 637 84 L 637 82 C 641.01529 80.558614 644.99242 79.579436 649.16406 78.710938 C 651.47845 78.130747 653.69711 77.470497 655.96094 76.726562 C 656.66622 76.495582 657.371 76.265328 658.09766 76.027344 C 659.51095 75.55833 660.92202 75.077824 662.32812 74.587891 C 664.78899 73.772513 666.78209 73.248521 668.90625 73.28125 z M 679 83 C 683.66768 82.93527 688.33239 82.94192 693 83 C 694.29293 83.01547 695.58586 83.030945 696.91797 83.046875 C 707.55256 83.437135 714.5246 85.551681 722.25 92.9375 C 726.87593 97.340792 731.92005 99.172674 737.80078 101.48047 C 742.23622 103.58717 744.26904 105.98389 747 110 L 740 115 C 736.89058 113.58154 734.44882 111.85322 731.8125 109.6875 C 728.09984 106.7478 724.36234 104.38562 720.17578 102.1875 C 718.05607 101.0306 716.11648 99.737802 714.125 98.375 C 704.09319 92.144313 692.43416 92.364786 681 92 C 679.50179 88.629026 679 86.795579 679 83 z M 670.07422 84.777344 C 671.35233 84.788489 672.65867 84.86044 674 85 C 675.76463 88.088097 676 89.233121 676 93 L 672.16016 93.550781 C 670.46087 93.804265 668.76166 94.058195 667.0625 94.3125 L 664.54492 94.669922 C 658.78262 95.544356 653.46572 96.979791 648 99 C 645 93.25 645 93.25 645 91 C 653.55994 87.592251 661.12741 84.699329 670.07422 84.777344 z M 632 85 C 634.468 86.151734 636.04784 87.047836 638 89 L 638 92 C 637.31938 92.37125 636.63875 92.7425 635.9375 93.125 C 632.99966 95.00022 631.96268 96.277557 630 99.0625 C 626.90464 103.27164 623.49973 106.04511 619.3125 109.0625 C 610.82058 115.30348 609.08558 120.88647 606.78906 130.91797 C 606.01627 133.93646 605.01428 136.72762 603.875 139.625 C 601.92709 144.7327 601.23608 149.55829 601 155 L 593 155 C 593 151.80476 593.16831 149.88382 593.98828 146.91797 C 594.20033 146.15033 594.41238 145.38269 594.63086 144.5918 C 594.96827 143.40167 594.96827 143.40167 595.3125 142.1875 C 595.52584 141.40568 595.73918 140.62387 595.95898 139.81836 C 596.97135 136.20106 598.06768 132.84446 599.57031 129.39062 C 601.08936 125.78808 601.80162 122.39079 602.5625 118.5625 C 604.43652 110.5813 608.32421 107.36031 615 103 C 619.50727 99.346498 623.5269 95.670717 627 91 C 627.9109 89.891074 628.82775 88.787007 629.75 87.6875 L 632 85 z M 639 94 C 642.53571 94.535714 642.53571 94.535714 644 96 C 644.5 98.6875 644.5 98.6875 644 102 C 642.44087 103.67179 640.74291 104.97633 638.92969 106.36719 C 636.89633 108.08772 635.52918 109.82608 634 112 C 632.03112 114.79318 630.18621 116.73151 627.4375 118.75 C 622.57111 122.67104 621.10618 128.30865 619 134 L 617.25 137.375 C 615.27601 143.09957 615.24203 148.98255 615 155 L 604 155 C 603.66277 149.26711 604.7425 145.1272 606.8125 139.8125 C 608.73613 134.69283 610.38269 129.74488 611.5 124.375 C 613.4497 116.12539 618.45147 112.17987 625.11719 107.40234 C 627.67103 105.50021 629.81133 103.30697 632 101 C 634.33333 98.666667 636.66667 96.333333 639 94 z M 681 95 C 694.96346 94.373732 706.31583 96.184234 718 104 C 719.59589 104.89001 721.19989 105.76565 722.8125 106.625 C 728.2409 109.6312 732.05009 112.4107 735 118 L 729 124 C 725.59763 122.86588 725.10694 122.07785 723 119.3125 C 715.20627 110.19807 702.72119 105.91153 691.0625 104.53516 C 687.70655 104.2882 684.36322 104.10085 681 104 L 681 95 z M 677 96 C 678 97 678 97 678.09766 98.847656 C 678.06506 100.89844 678.0326 102.94922 678 105 C 677.26137 105.0142 676.52273 105.02837 675.76172 105.04297 C 668.71723 105.37416 663.46013 106.72837 657.17969 109.94141 C 655.00004 110.99997 655 111 653 111 C 650 105.375 650 105.375 650 102 C 658.50947 97.573357 667.38919 95.610561 677 96 z M 647 105 C 648.63168 109.12719 649.40296 111.73716 648 116 C 646.21484 117.45703 646.21484 117.45703 643.9375 118.8125 C 635.78575 124.68541 630.24784 137.51124 628.375 147.25 C 627.56222 155.22558 627.56222 155.22558 629 163 C 629.1256 164.72774 629.22709 166.45731 629.3125 168.1875 C 630.22081 178.08805 634.76433 183.22145 641.5625 190.28906 C 644 193 644 193 645.87109 196.09766 C 648.42903 199.58489 651.21877 201.08422 655.0625 202.8125 L 656.95508 203.7168 C 669.66397 209.72538 684.27535 209.49797 698 208 C 701 213.75 701 213.75 701 216 C 695.76445 217.54372 690.41253 217.18434 685 217.1875 C 683.38932 217.2059 683.38932 217.20591 681.74609 217.22461 C 671.11418 217.24381 661.18228 216.36368 651.6875 211.3125 C 651.00526 210.95946 650.324 210.60593 649.62109 210.24219 C 643.37004 206.88514 639.00918 203.08075 635.125 197.125 C 633.10947 194.16098 631.11126 192.17413 628.5 189.75 C 620.55575 181.88415 619.55335 173.82582 619.17578 163.02734 C 619.34371 160.12207 619.34371 160.12207 618 159 C 617.53762 149.59828 618.28302 140.14863 623.01953 131.85547 C 624.0324 129.93869 624.54777 128.14627 625.125 126.0625 C 626.86544 121.20259 630.49294 118.50567 634.35547 115.25391 C 637.58456 112.50179 640.48453 109.50499 643.40625 106.43359 C 645 105 645 105 647 105 z M 686.29492 106.87109 C 691.84317 106.68802 696.32289 107.67911 701.5 109.625 C 702.60746 110.03105 702.60649 110.03105 703.73633 110.44531 C 711.91171 113.55837 719.12608 117.52667 724 125 C 724.0625 127.1875 724.0625 127.1875 723 129 C 719.96539 131.74094 719.70415 131.97761 717.63867 131.99805 C 717.76525 132.32193 717.88517 132.6555 718 133 L 714 134 C 711.1875 135.5625 711.1875 135.5625 708 137 C 705 136 705 136 703.19922 134.07812 C 698.30623 129.45455 689.99835 127.83536 683.375 127.5 C 674.43999 127.99093 665.79237 132.33969 659 138 C 654.9722 142.65348 652.25018 149.01136 651.86328 155.17969 C 652.74888 163.82733 656.17931 172.51668 662 179 C 666.51879 182.10667 671.52652 184.02771 677.01172 184.31641 C 677.76904 184.35831 678.52637 184.40021 679.30664 184.44336 C 680.09232 184.48266 680.87801 184.52196 681.6875 184.5625 C 682.88343 184.6273 682.88343 184.6273 684.10352 184.69336 C 686.06881 184.79927 688.03439 184.90013 690 185 L 692 194 C 683.85377 196.71541 672.75055 194.87034 664.89453 191.77734 C 654.37827 186.33791 648.51017 179.60633 644.83594 168.47266 C 640.76432 155.06804 642.5189 147.44628 649 135 C 649.38285 134.15437 649.7657 133.30875 650.16016 132.4375 C 652.93507 128.76119 656.57862 126.95849 660.5625 124.75 C 661.34303 124.30398 662.12355 123.85797 662.92773 123.39844 C 669.94769 119.40088 674.35755 118.7602 682.5 118.6875 C 683.55187 118.6585 684.60375 118.62951 685.6875 118.59961 C 686.817 118.59052 687.92054 118.61333 689 118.66992 L 689 118 L 670.68555 117.08398 C 667.37332 117.8452 664.3708 119.26405 660.90625 121.70703 C 659.00025 122.99976 659 123 657 123 L 655 115 C 664.32675 107.37556 674.82251 107.51319 686.29492 106.87109 z M 759 108 C 762.70884 114.7554 764.85809 121.61624 767 129 C 767.42943 130.42235 767.86049 131.8442 768.29297 133.26562 C 770.57103 140.79971 772.644 148.23383 774 156 L 765 156 C 764.997 155.36578 764.99519 154.73156 764.99219 154.07812 C 764.44849 140.95696 760.74249 126.50275 753.00391 115.77734 C 752.67281 115.19082 752.34133 114.6043 752 114 C 753.18363 110.4491 755.00632 108 759 108 z M 747.95703 115.00781 C 753.32329 117.61398 755.88072 126.82727 757.80469 132.2793 C 758.56129 134.61247 759.26411 136.95402 759.9375 139.3125 C 760.25449 140.40389 760.25474 140.40414 760.57812 141.51758 C 761.98131 146.78978 762.17758 151.54882 762 157 L 754 156 C 752.1103 149.791 752.11031 149.791 751.70312 146.87109 C 750.73362 140.04995 748.01858 134.55951 744.83203 128.5332 C 743.15942 125.36888 741.76427 122.49558 741 119 C 745.36639 114.99747 745.36639 114.99747 747.95703 115.00781 z M 649 118 L 652 119 C 653.1875 122.0625 653.1875 122.0625 654 125 L 651.26953 127.48047 C 647.7391 131.0192 645.73801 134.7949 643.6875 139.3125 C 643.34139 140.02084 642.99527 140.72918 642.63867 141.45898 C 640.29152 146.50559 638.9728 151.39467 639 157 L 640 158 C 640.32679 159.3042 640.61087 160.61918 640.875 161.9375 C 643.25095 172.80144 645.78135 182.62169 655.3125 189.375 C 665.96221 195.80032 678.24462 197.54259 690.50391 196.58203 C 693 197 693 197 694.90234 199.32422 C 696 202 696 202 695 205 C 691.87644 206.24086 688.70127 206.13397 685.375 206.125 C 683.93254 206.129 683.93254 206.12881 682.46094 206.13281 C 680 205.99981 680 206 678 205 C 675.91692 204.947 673.83349 204.9077 671.75 204.875 C 662.70366 204.26137 654.4067 201.3987 647.84766 194.85156 C 646.71255 193.38441 645.62427 191.87964 644.58984 190.33984 C 642.2824 186.94388 639.48561 184.04833 636.69922 181.04297 C 633.03793 176.641 632.51315 172.47131 631.9375 166.875 C 631.56021 161.78344 631.56021 161.78344 630 157 C 629.38276 150.56553 631.26285 145.52127 633.5625 139.5625 C 633.88541 138.65951 634.20832 137.75652 634.54102 136.82617 C 637.45847 129.15188 641.87696 122.3995 649 118 z M 736 122 L 738 122 C 739.47064 124.49343 740.92639 126.99381 742.375 129.5 C 742.7875 130.19609 743.2 130.89219 743.625 131.60938 C 747.83994 138.95154 749.30216 145.53937 749 154 L 739 153 C 738.85305 152.20078 738.70609 151.40156 738.55469 150.57812 C 736.86233 142.29143 734.10848 135.3793 730 128 L 736 122 z M 685.11328 129.96094 C 690.4503 130.06633 695.66812 131.63169 700 135 C 706.92298 142.33546 711.51147 147.83371 711.32031 158.04688 C 710.60377 164.65303 707.87911 171.3997 703 176 C 698.96733 178.08835 696.56398 179 692 179 L 691 172 L 693.75 170.5 C 697.72296 167.81684 699.56694 164.52336 701 160 C 701.93389 154.99889 701.43207 151.13972 698.9375 146.6875 C 696.21761 142.89177 693.52136 140.35726 689 139 C 681.91588 137.98345 675.84975 138.72306 670 143 C 665.20118 148.04492 664.5847 152.38458 664.65625 159.13672 C 665.19739 163.64416 666.94994 166.68966 670 170 C 675.23326 173.95685 681.66301 173.70263 688 174 L 689 181 C 680.14703 182.29487 673.00275 182.37781 665 178 C 660.06799 173.44738 656.4632 165.51791 655 159 C 654.75177 151.87026 657.2162 145.95059 661 140 C 666.99375 133.66375 676.21825 129.78528 685.11328 129.96094 z M 726 131 C 731.53925 135.74793 734.02896 141.33022 734.75 148.5 C 734.8493 149.99902 734.93848 151.49895 735 153 L 727 153 C 725.98089 149.94266 724.96472 146.88756 724 143.8125 C 722.40411 139.32405 721.35044 138.17522 717 136 L 726 131 z M 714.43555 139.01758 C 715.84045 139.10178 717.26643 139.51338 719 140 C 720.46114 142.5192 721.22715 144.27871 722 147 C 722.39188 148.11375 722.78375 149.2275 723.1875 150.375 C 725.61464 161.20377 722.49619 169.62957 717 179 C 712.22535 185.18899 705.22085 188.36208 698 191 L 696 191 C 694.50179 187.62903 694 185.79558 694 182 C 694.65227 181.79246 695.30453 181.58492 695.97656 181.37109 C 703.19566 178.82631 707.63228 175.9312 710.99219 168.93359 C 713.30287 162.78277 715.40912 154.9969 713.16406 148.62891 C 712.10771 146.51694 712.10771 146.51694 710.91016 144.65625 C 710 143 710 143 710 140 C 711.64683 139.17659 713.03064 138.93338 714.43555 139.01758 z M 681.60742 141.66992 C 683.56937 141.59308 685.66602 141.786 688 142 C 692.70674 143.62597 695.47073 145.69087 698 150 C 699.24329 153.96489 699.67617 157.34688 698.07812 161.25391 C 695.55075 165.4896 692.94312 168.84377 688.25 170.6875 C 683.531 171.34292 679.59785 171.7263 675.25 169.75 C 671.2378 166.6294 668.26515 164.06059 667 159 C 667 152.86344 668.28651 149.92161 672.42969 145.44531 C 675.44013 142.67452 678.3375 141.79799 681.60742 141.66992 z M 728 157 L 736 157 C 735.74233 167.37709 732.4882 177.79433 726 186 C 725.2807 186.9668 725.28071 186.9668 724.54688 187.95312 C 720.12698 193.52961 715.45865 196.19699 709 199 C 707.86563 199.5775 706.73125 200.155 705.5625 200.75 C 703 202 703 202 700 203 L 698 194 L 701.5 192.25 L 703.71094 191.12891 C 705.15818 190.41516 706.6208 189.73114 708.10156 189.08984 C 716.54096 185.32633 720.3189 179.25891 723.89844 170.93359 C 725.61019 166.37498 726.87379 161.73374 728 157 z M 740 157 C 746.15234 156.9023 746.15234 156.9023 748 157 L 749 158 C 748.67892 172.05358 744.21263 185.22487 735 196 C 731.66667 194.66667 728.33333 193.33333 725 192 L 726.17188 190.53125 C 734.10518 180.32007 737.75502 169.65111 740 157 z M 595 158 L 602 158 C 602.18176 159.01578 602.36352 160.03157 602.55078 161.07812 C 606.5749 185.4518 606.5749 185.45179 621.21875 204.57031 C 624.48712 207.42554 627.26107 210.56196 630.125 213.8125 C 634.39781 218.57773 637.96305 221.74894 644 224 C 645.05187 224.53625 646.10375 225.0725 647.1875 225.625 C 651.49324 227.45911 656.06754 227.77957 660.67188 228.39453 C 663.87311 228.97691 666.50626 229.87761 669.5 231.125 C 678.12058 234.51031 687.03731 233.19502 696 232 C 699.00222 231.87551 702.00164 231.77693 705 232 C 706 233 706 233 706.125 235.5 C 706 238 706 238 705 239 C 703.60739 239.22746 702.20484 239.39474 700.80078 239.53516 C 699.92817 239.62286 699.05531 239.71047 698.15625 239.80078 C 693.43984 240.23481 688.72195 240.63148 684 241 C 683.29424 241.0617 682.58848 241.12392 681.86133 241.1875 C 673.18813 241.89372 667.15348 240.24861 659.32422 236.53125 C 653.42307 233.81298 647.37587 232.04285 640.875 231.8125 C 631.58271 229.86412 624.58512 219.74161 619.0625 212.4375 C 615.41554 208.12746 611.05708 204.41269 606.40625 201.21875 C 597.91958 193.39338 596.49168 173.02752 595 162 L 595 158 z M 612.93359 158.90234 C 615 159.00004 615 159 616 160 C 616.13418 162.31095 616.23161 164.62407 616.3125 166.9375 C 616.64502 173.64681 618.09699 178.97489 621 185 C 621.29004 185.87398 621.58008 186.74797 621.87891 187.64844 C 623.23994 190.50329 624.18609 190.74128 627 192 C 628.89453 193.88281 628.89453 193.88281 630.8125 196.125 C 631.51117 196.9268 632.20984 197.72859 632.92969 198.55469 C 634.22541 200.08511 635.50445 201.63 636.75781 203.19531 C 640.90638 208.27007 645.10244 211.18748 651 214 C 652.33379 214.66575 653.66727 215.33213 655 216 C 654.45276 219.37463 653.9451 221.08235 652 224 C 642.47549 221.43311 635.29953 217.41618 629.66406 209.21484 C 625.56148 203.75436 620.27205 199.15578 615.32812 194.46484 C 608.74096 187.49085 608.25996 178.07333 607.39453 168.95312 C 607.05946 165.59583 606.6 162.31828 606 159 C 607.47907 158.9731 608.95827 158.9537 610.4375 158.9375 C 611.26121 158.9259 612.08492 158.91434 612.93359 158.90234 z M 753 160 L 763 160 C 762.66667 161.66667 762.33333 163.33333 762 165 C 761.77184 166.2027 761.54367 167.40539 761.30859 168.64453 C 758.51743 182.39342 753.34085 195.32474 744 206 L 742 206 C 740.28564 204.04073 738.61595 202.0412 737 200 C 738.38128 197.06643 739.99605 194.51331 741.875 191.875 C 748.37773 182.12091 750.53804 171.28836 753 160 z M 765 161 L 773 161 C 769.23159 179.22065 769.23159 179.22065 765.92188 187.55859 C 764.98627 190.03639 764.33784 192.49684 763.6875 195.0625 C 762.01682 200.87276 758.62119 205.24446 755 210 L 753 213 C 750.50638 211.79619 748.31857 210.54571 746 209 C 747.43279 205.89562 749.18858 203.3457 751.25 200.625 C 759.79557 188.40182 762.53327 175.42314 765 161 z M 723 194 C 726.37504 195.18582 728.64723 196.27574 731 199 C 729.68439 202.94683 727.52726 204.12718 724 206 C 720.95604 207.31268 717.89509 208.55471 714.80469 209.75391 C 711.99102 210.87609 711.99102 210.87609 709.82031 212.65234 C 708 214 708 214 705 214 L 703 205 C 706.85547 202.62109 710.34169 200.8023 714.6875 199.5 C 718.36813 198.36315 720.55025 197.08881 723 194 z M 733 202 C 734.875 202.6875 734.875 202.6875 737 204 C 737.72119 205.64381 738.39401 207.31033 739 209 C 733.82023 212.77868 728.75927 216.31234 722.94141 219.02734 C 720.78745 220.10649 718.82619 221.36637 716.8125 222.6875 C 713.89579 224.56294 711.51719 225.67026 708 226 L 707 217 C 710.90625 215.04687 714.8125 213.09375 718.71875 211.14062 C 719.42129 210.78679 720.12383 210.43293 720.84766 210.06836 C 722.30565 209.34466 723.77223 208.63806 725.24609 207.94727 C 725.95895 207.60889 726.6718 207.27051 727.40625 206.92188 C 728.37015 206.47474 728.37015 206.47376 729.35352 206.01758 C 731.33205 204.95137 731.33205 204.95234 733 202 z M 741 211 C 744.82488 211.39568 746.42525 213.3065 749 216 C 742.35659 220.41973 735.58367 224.33231 728.50977 228 C 723.66819 230.54899 719.23692 233.46207 714.85547 236.75 C 713 238 713 238 711 238 L 710 229 C 710.77344 228.62488 711.54687 228.24977 712.34375 227.86328 C 717.71548 225.22395 722.95729 222.55399 727.98047 219.29688 C 731.26538 217.18741 734.6376 215.22384 737.99609 213.23438 C 739.92331 212.15375 739.92331 212.15375 741 211 z M 658 218 C 659.92199 218.21656 659.92199 218.21656 661.88281 218.4375 C 674.7659 219.84023 687.28745 220.82825 700.20703 219.12109 C 700.79871 219.08109 701.39039 219.04119 702 219 C 703 220 703 220 703.09766 222.06641 C 703.08606 222.89012 703.0745 223.71383 703.0625 224.5625 C 703.0535 225.38879 703.04436 226.21508 703.03516 227.06641 C 703.02356 227.70449 703.012 228.34258 703 229 C 698.00681 229.73681 693.01146 230.39883 688 231 C 686.79344 231.15275 686.79344 231.15275 685.5625 231.30859 C 679.66087 231.68897 674.36161 229.75804 668.8457 227.86719 C 664.54638 226.39942 660.51864 225.51055 656 225 C 656.875 220.25 656.875 220.25 658 218 z " />
    <path
       d="m 646,116 c 0.66,0.33 1.32,0.66 2,1 -0.66,0.66 -1.32,1.32 -2,2 0.33,0.66 0.66,1.32 1,2 -1.06477,0.77988 -2.12953,1.55977 -3.22656,2.36328 -4.5209,3.8775 -6.17896,8.31844 -8.14844,13.82422 -0.3416,0.9017 -0.6832,1.8034 -1.03516,2.73242 -3.82507,9.65093 -3.82507,9.65093 -2.65234,19.76758 1.05437,3.28717 1.26415,5.88356 1.4375,9.3125 0.67638,8.88024 5.69849,13.30821 11.54687,19.60937 C 647,191 647,191 648.75,194.25 c 4.67216,5.71042 11.9847,8.27838 19.14453,9.3125 2.43213,0.1603 4.86794,0.27511 7.30469,0.33203 C 678,204 678,204 680,205 c 2.82134,0.23511 5.64125,0.38206 8.46875,0.52344 0.83531,0.15726 1.67062,0.31453 2.53125,0.47656 0.99,1.485 0.99,1.485 2,3 -14.30799,2.30774 -29.42193,0.45928 -42,-7 -2.57422,-2.36328 -2.57422,-2.36328 -5,-5 -0.825,-0.87398 -1.65,-1.74797 -2.5,-2.64844 C 629.10265,178.64945 629.10265,178.64945 628.4375,168.375 628.23048,165.29087 627.98279,162.94837 627,160 c -1.1217,-12.99082 3.77696,-28.2755 12.1875,-38.3125 2.19563,-2.09805 4.27357,-4.02743 6.8125,-5.6875 z"
       fill="#181919"
       id="path25"
       style="fill:#ffffff;fill-opacity:0.98;fill-rule:nonzero" />
    <path
       d="m 647,131 c 0.99,0 1.98,0 3,0 -0.64408,6.44894 -2.809,11.10563 -5.72266,16.81641 -3.44245,8.57982 0.68253,18.87189 3.72266,27.18359 3.97017,7.85087 11.88043,13.8516 20,17 2.99307,0.50295 5.97223,0.80488 9,1 -1.98,0.495 -1.98,0.495 -4,1 0,0.66 0,1.32 0,2 -9.09377,-0.34976 -17.70787,-4.07899 -24,-10.75 -3.41101,-4.33223 -5.26659,-9.05851 -7,-14.25 -0.39188,-1.05188 -0.78375,-2.10375 -1.1875,-3.1875 -0.93775,-3.24607 -1.35363,-6.46933 -1.8125,-9.8125 -0.33,-0.33 -0.66,-0.66 -1,-1 -0.0838,-6.73713 2.06364,-12.15283 5.0625,-18.0625 0.56558,-1.15532 0.56558,-1.15532 1.14258,-2.33398 0.91947,-1.87386 1.85547,-3.7396 2.79492,-5.60352 z"
       fill="#141414"
       id="path34"
       style="fill:#ffffff;fill-opacity:0.98;fill-rule:nonzero" />
    <path
       d="m 625,122 c 1.3737,3.70988 0.5941,5.88161 -0.8125,9.5 -0.35707,0.93844 -0.71414,1.87687 -1.08203,2.84375 C 622,137 622,137 620.93359,138.82812 c -1.43577,3.34013 -1.67256,6.84007 -2.05859,10.42188 -0.12955,1.11762 -0.12955,1.11762 -0.26172,2.25781 -0.21115,1.82997 -0.41313,3.66099 -0.61328,5.49219 -2.37119,-1.81623 -2.95842,-2.75608 -3.46875,-5.75 -0.0697,-7.24818 0.89007,-12.42282 4.23437,-18.86719 1.3861,-2.50918 1.3861,-2.50918 2.35938,-5.94531 C 622,124 622,124 625,122 Z"
       fill="#151515"
       id="path43"
       style="fill:#ffffff;fill-opacity:0.98;fill-rule:nonzero" />
    <path
       d="m 722,170 c 0.66,0.66 1.32,1.32 2,2 -3.55137,8.48571 -7.75912,14.8475 -16.5,18.4375 -0.825,0.18563 -1.65,0.37125 -2.5,0.5625 -0.99,-0.99 -1.98,-1.98 -3,-3 0.66387,-0.29133 1.32773,-0.58266 2.01172,-0.88281 C 712.48103,183.18545 715.8785,179.43927 720,171 c 0.66,-0.33 1.32,-0.66 2,-1 z"
       fill="#141414"
       id="path44"
       style="fill:#ffffff;fill-opacity:0.98;fill-rule:nonzero" />
    <path
       d="m 683.75,126.9375 c 0.79922,0.009 1.59844,0.0181 2.42187,0.0273 0.60329,0.0116 1.20657,0.0232 1.82813,0.0352 -1.32,0.33 -2.64,0.66 -4,1 0,0.66 0,1.32 0,2 -0.59426,0.15855 -1.18852,0.31711 -1.80078,0.48047 -6.7242,1.89281 -12.90962,4.4943 -19.19922,7.51953 0.16797,-2.32813 0.16797,-2.32813 1,-5 2.36328,-1.54688 2.36328,-1.54688 5.3125,-2.75 0.96551,-0.40734 1.93102,-0.81469 2.92578,-1.23438 4.01143,-1.4752 7.2314,-2.14107 11.51172,-2.07812 z"
       fill="#181818"
       id="path45"
       style="fill:#ffffff;fill-opacity:0.98;fill-rule:nonzero" />
    <path
       d="m 711,164 c 0.66,0.33 1.32,0.66 2,1 -1.33158,5.91812 -4.65422,9.92927 -9,14 -3.16133,1.88718 -5.31908,2.20449 -9,2 1,-3 1,-3 2.67187,-3.85156 0.68579,-0.25524 1.37157,-0.51047 2.07813,-0.77344 4.60822,-2.10591 6.1425,-4.96352 8.24219,-9.44922 C 709,165 709,165 711,164 Z"
       fill="#101010"
       id="path46"
       style="fill:#ffffff;fill-opacity:0.98;fill-rule:nonzero" />
    <path
       d="m 687.25,216.9375 c 0.74508,0.005 1.49016,0.009 2.25781,0.0137 1.83077,0.0117 3.66149,0.0297 5.49219,0.0488 0,0.99 0,1.98 0,3 -3.50095,1.16698 -6.31222,1.13268 -10,1.125 -1.2375,0.003 -2.475,0.005 -3.75,0.008 C 678,221 678,221 675,220 c 0,-0.66 0,-1.32 0,-2 4.09004,-1.14983 8.03177,-1.11094 12.25,-1.0625 z"
       fill="#212222"
       id="path47"
       style="fill:#ffffff;fill-opacity:0.98;fill-rule:nonzero" />
    <path
       d="m 720,196 c -0.33,0.99 -0.66,1.98 -1,3 -1.85547,0.84375 -1.85547,0.84375 -4.1875,1.5 -4.77679,1.45281 -9.21867,2.90617 -12.8125,6.5 -0.0625,-2.75 -0.0625,-2.75 1,-6 2.81309,-1.84387 5.83318,-2.9042 9,-4 1.13437,-0.43313 2.26875,-0.86625 3.4375,-1.3125 C 718,195 718,195 720,196 Z"
       fill="#1C1D1D"
       id="path48"
       style="fill:#ffffff;fill-opacity:0.98;fill-rule:nonzero" />
    <path
       d="m 664,82 c 0,0.66 0,1.32 0,2 0.66,0.33 1.32,0.66 2,1 -9.9,2.97 -9.9,2.97 -20,6 0,-1.32 0,-2.64 0,-4 2.24732,-0.841243 4.49739,-1.673148 6.75,-2.5 0.63422,-0.238477 1.26844,-0.476953 1.92187,-0.722656 C 658.03287,82.551982 660.36872,82 664,82 Z"
       fill="#131414"
       id="path49"
       style="fill:#ffffff;fill-opacity:0.98000002;fill-rule:nonzero" />
    <path
       d="m 722,170 c 0.66,0.66 1.32,1.32 2,2 -0.6875,2.4375 -0.6875,2.4375 -2,5 -2.625,0.8125 -2.625,0.8125 -5,1 2.75,-6.875 2.75,-6.875 5,-8 z"
       fill="#1B1B1C"
       id="path52"
       style="fill:#ffffff;fill-opacity:0.98;fill-rule:nonzero" />
    <path
       d="m 762,163 c 0.99,0.33 1.98,0.66 3,1 -0.33,2.31 -0.66,4.62 -1,7 -0.33,-0.66 -0.66,-1.32 -1,-2 -0.66,0 -1.32,0 -2,0 -0.33,0.99 -0.66,1.98 -1,3 0.875,-6.75 0.875,-6.75 2,-9 z"
       fill="#262727"
       id="path55"
       style="fill:#ffffff;fill-opacity:0.98;fill-rule:nonzero" />
    <path
       d="m 720,196 c -0.33,0.99 -0.66,1.98 -1,3 -1.875,0.875 -1.875,0.875 -4,1 -1.75,-1.4375 -1.75,-1.4375 -3,-3 5.75,-2.125 5.75,-2.125 8,-1 z"
       fill="#151515"
       id="path57"
       style="fill:#ffffff;fill-opacity:0.98;fill-rule:nonzero" />
    <path
       d="m 711,164 c 0.66,0.33 1.32,0.66 2,1 -0.1875,1.875 -0.1875,1.875 -1,4 -2.5625,1.25 -2.5625,1.25 -5,2 0.60184,-2.02045 1.27306,-4.02111 2,-6 0.66,-0.33 1.32,-0.66 2,-1 z"
       fill="#202020"
       id="path58"
       style="fill:#ffffff;fill-opacity:0.98;fill-rule:nonzero" />
  </g>
</svg>
